%
M48
M72
T01C0.0236
T02C0.0315
T03C0.0335
T04C0.0374
%
T01
X6750Y12425
X7000Y13525
X9100Y14025
X8050Y16475
T02
X6409Y11225
X7591Y11225
T03
X3400Y11275
X3400Y12275
X3400Y13275
X3400Y14275
X3400Y15275
X3400Y16275
X3400Y17275
X3400Y18275
X22400Y18275
X22400Y17275
X22400Y16275
X22400Y15275
X22400Y14275
X22400Y13275
T04
X13400Y18325
X12400Y18325
X11400Y18325
X11400Y19325
X12400Y19325
X13400Y19325
M30
