G75*
%MOIN*%
%OFA0B0*%
%FSLAX24Y24*%
%IPPOS*%
%LPD*%
%AMOC8*
5,1,8,0,0,1.08239X$1,22.5*
%
%ADD10C,0.0120*%
%ADD11C,0.0034*%
%ADD12C,0.0036*%
%ADD13C,0.0033*%
D10*
X007240Y016025D02*
X007242Y016057D01*
X007248Y016088D01*
X007258Y016119D01*
X007271Y016148D01*
X007288Y016175D01*
X007308Y016200D01*
X007331Y016222D01*
X007356Y016242D01*
X007384Y016258D01*
X007414Y016270D01*
X007444Y016279D01*
X007476Y016284D01*
X007508Y016285D01*
X007540Y016282D01*
X007571Y016275D01*
X007601Y016264D01*
X007630Y016250D01*
X007657Y016232D01*
X007681Y016212D01*
X007703Y016188D01*
X007721Y016162D01*
X007736Y016134D01*
X007748Y016104D01*
X007756Y016073D01*
X007760Y016041D01*
X007760Y016009D01*
X007756Y015977D01*
X007748Y015946D01*
X007736Y015916D01*
X007721Y015888D01*
X007703Y015862D01*
X007681Y015838D01*
X007657Y015818D01*
X007630Y015800D01*
X007601Y015786D01*
X007571Y015775D01*
X007540Y015768D01*
X007508Y015765D01*
X007476Y015766D01*
X007444Y015771D01*
X007414Y015780D01*
X007384Y015792D01*
X007356Y015808D01*
X007331Y015828D01*
X007308Y015850D01*
X007288Y015875D01*
X007271Y015902D01*
X007258Y015931D01*
X007248Y015962D01*
X007242Y015993D01*
X007240Y016025D01*
X007240Y017025D02*
X007242Y017057D01*
X007248Y017088D01*
X007258Y017119D01*
X007271Y017148D01*
X007288Y017175D01*
X007308Y017200D01*
X007331Y017222D01*
X007356Y017242D01*
X007384Y017258D01*
X007414Y017270D01*
X007444Y017279D01*
X007476Y017284D01*
X007508Y017285D01*
X007540Y017282D01*
X007571Y017275D01*
X007601Y017264D01*
X007630Y017250D01*
X007657Y017232D01*
X007681Y017212D01*
X007703Y017188D01*
X007721Y017162D01*
X007736Y017134D01*
X007748Y017104D01*
X007756Y017073D01*
X007760Y017041D01*
X007760Y017009D01*
X007756Y016977D01*
X007748Y016946D01*
X007736Y016916D01*
X007721Y016888D01*
X007703Y016862D01*
X007681Y016838D01*
X007657Y016818D01*
X007630Y016800D01*
X007601Y016786D01*
X007571Y016775D01*
X007540Y016768D01*
X007508Y016765D01*
X007476Y016766D01*
X007444Y016771D01*
X007414Y016780D01*
X007384Y016792D01*
X007356Y016808D01*
X007331Y016828D01*
X007308Y016850D01*
X007288Y016875D01*
X007271Y016902D01*
X007258Y016931D01*
X007248Y016962D01*
X007242Y016993D01*
X007240Y017025D01*
X008239Y017025D02*
X008241Y017057D01*
X008247Y017089D01*
X008257Y017119D01*
X008270Y017148D01*
X008287Y017176D01*
X008307Y017201D01*
X008330Y017223D01*
X008356Y017243D01*
X008384Y017259D01*
X008413Y017271D01*
X008444Y017280D01*
X008476Y017285D01*
X008508Y017286D01*
X008540Y017283D01*
X008571Y017276D01*
X008602Y017265D01*
X008630Y017251D01*
X008657Y017233D01*
X008682Y017212D01*
X008703Y017189D01*
X008722Y017162D01*
X008737Y017134D01*
X008749Y017104D01*
X008757Y017073D01*
X008761Y017041D01*
X008761Y017009D01*
X008757Y016977D01*
X008749Y016946D01*
X008737Y016916D01*
X008722Y016888D01*
X008703Y016861D01*
X008682Y016838D01*
X008657Y016817D01*
X008631Y016799D01*
X008602Y016785D01*
X008571Y016774D01*
X008540Y016767D01*
X008508Y016764D01*
X008476Y016765D01*
X008444Y016770D01*
X008413Y016779D01*
X008384Y016791D01*
X008356Y016807D01*
X008330Y016827D01*
X008307Y016849D01*
X008287Y016874D01*
X008270Y016902D01*
X008257Y016931D01*
X008247Y016961D01*
X008241Y016993D01*
X008239Y017025D01*
X008239Y016025D02*
X008241Y016057D01*
X008247Y016089D01*
X008257Y016119D01*
X008270Y016148D01*
X008287Y016176D01*
X008307Y016201D01*
X008330Y016223D01*
X008356Y016243D01*
X008384Y016259D01*
X008413Y016271D01*
X008444Y016280D01*
X008476Y016285D01*
X008508Y016286D01*
X008540Y016283D01*
X008571Y016276D01*
X008602Y016265D01*
X008630Y016251D01*
X008657Y016233D01*
X008682Y016212D01*
X008703Y016189D01*
X008722Y016162D01*
X008737Y016134D01*
X008749Y016104D01*
X008757Y016073D01*
X008761Y016041D01*
X008761Y016009D01*
X008757Y015977D01*
X008749Y015946D01*
X008737Y015916D01*
X008722Y015888D01*
X008703Y015861D01*
X008682Y015838D01*
X008657Y015817D01*
X008631Y015799D01*
X008602Y015785D01*
X008571Y015774D01*
X008540Y015767D01*
X008508Y015764D01*
X008476Y015765D01*
X008444Y015770D01*
X008413Y015779D01*
X008384Y015791D01*
X008356Y015807D01*
X008330Y015827D01*
X008307Y015849D01*
X008287Y015874D01*
X008270Y015902D01*
X008257Y015931D01*
X008247Y015961D01*
X008241Y015993D01*
X008239Y016025D01*
D11*
X008313Y016108D02*
X008313Y015942D01*
X007787Y015942D01*
X007787Y016108D01*
X008313Y016108D01*
X008313Y015975D02*
X007787Y015975D01*
X007787Y016008D02*
X008313Y016008D01*
X008313Y016041D02*
X007787Y016041D01*
X007787Y016074D02*
X008313Y016074D01*
X008313Y016107D02*
X007787Y016107D01*
X008313Y015608D02*
X008313Y015442D01*
X007787Y015442D01*
X007787Y015608D01*
X008313Y015608D01*
X008313Y015475D02*
X007787Y015475D01*
X007787Y015508D02*
X008313Y015508D01*
X008313Y015541D02*
X007787Y015541D01*
X007787Y015574D02*
X008313Y015574D01*
X008313Y015607D02*
X007787Y015607D01*
X008313Y015108D02*
X008313Y014942D01*
X007787Y014942D01*
X007787Y015108D01*
X008313Y015108D01*
X008313Y014975D02*
X007787Y014975D01*
X007787Y015008D02*
X008313Y015008D01*
X008313Y015041D02*
X007787Y015041D01*
X007787Y015074D02*
X008313Y015074D01*
X008313Y015107D02*
X007787Y015107D01*
X008313Y014608D02*
X008313Y014442D01*
X007787Y014442D01*
X007787Y014608D01*
X008313Y014608D01*
X008313Y014475D02*
X007787Y014475D01*
X007787Y014508D02*
X008313Y014508D01*
X008313Y014541D02*
X007787Y014541D01*
X007787Y014574D02*
X008313Y014574D01*
X008313Y014607D02*
X007787Y014607D01*
X008313Y014108D02*
X008313Y013942D01*
X007787Y013942D01*
X007787Y014108D01*
X008313Y014108D01*
X008313Y013975D02*
X007787Y013975D01*
X007787Y014008D02*
X008313Y014008D01*
X008313Y014041D02*
X007787Y014041D01*
X007787Y014074D02*
X008313Y014074D01*
X008313Y014107D02*
X007787Y014107D01*
X008313Y013608D02*
X008313Y013442D01*
X007787Y013442D01*
X007787Y013608D01*
X008313Y013608D01*
X008313Y013475D02*
X007787Y013475D01*
X007787Y013508D02*
X008313Y013508D01*
X008313Y013541D02*
X007787Y013541D01*
X007787Y013574D02*
X008313Y013574D01*
X008313Y013607D02*
X007787Y013607D01*
X008313Y013108D02*
X008313Y012942D01*
X007787Y012942D01*
X007787Y013108D01*
X008313Y013108D01*
X008313Y012975D02*
X007787Y012975D01*
X007787Y013008D02*
X008313Y013008D01*
X008313Y013041D02*
X007787Y013041D01*
X007787Y013074D02*
X008313Y013074D01*
X008313Y013107D02*
X007787Y013107D01*
X006163Y013108D02*
X006163Y012942D01*
X005637Y012942D01*
X005637Y013108D01*
X006163Y013108D01*
X006163Y012975D02*
X005637Y012975D01*
X005637Y013008D02*
X006163Y013008D01*
X006163Y013041D02*
X005637Y013041D01*
X005637Y013074D02*
X006163Y013074D01*
X006163Y013107D02*
X005637Y013107D01*
X006163Y013442D02*
X006163Y013608D01*
X006163Y013442D02*
X005637Y013442D01*
X005637Y013608D01*
X006163Y013608D01*
X006163Y013475D02*
X005637Y013475D01*
X005637Y013508D02*
X006163Y013508D01*
X006163Y013541D02*
X005637Y013541D01*
X005637Y013574D02*
X006163Y013574D01*
X006163Y013607D02*
X005637Y013607D01*
X006163Y013942D02*
X006163Y014108D01*
X006163Y013942D02*
X005637Y013942D01*
X005637Y014108D01*
X006163Y014108D01*
X006163Y013975D02*
X005637Y013975D01*
X005637Y014008D02*
X006163Y014008D01*
X006163Y014041D02*
X005637Y014041D01*
X005637Y014074D02*
X006163Y014074D01*
X006163Y014107D02*
X005637Y014107D01*
X006163Y014442D02*
X006163Y014608D01*
X006163Y014442D02*
X005637Y014442D01*
X005637Y014608D01*
X006163Y014608D01*
X006163Y014475D02*
X005637Y014475D01*
X005637Y014508D02*
X006163Y014508D01*
X006163Y014541D02*
X005637Y014541D01*
X005637Y014574D02*
X006163Y014574D01*
X006163Y014607D02*
X005637Y014607D01*
X006163Y014942D02*
X006163Y015108D01*
X006163Y014942D02*
X005637Y014942D01*
X005637Y015108D01*
X006163Y015108D01*
X006163Y014975D02*
X005637Y014975D01*
X005637Y015008D02*
X006163Y015008D01*
X006163Y015041D02*
X005637Y015041D01*
X005637Y015074D02*
X006163Y015074D01*
X006163Y015107D02*
X005637Y015107D01*
X006163Y015442D02*
X006163Y015608D01*
X006163Y015442D02*
X005637Y015442D01*
X005637Y015608D01*
X006163Y015608D01*
X006163Y015475D02*
X005637Y015475D01*
X005637Y015508D02*
X006163Y015508D01*
X006163Y015541D02*
X005637Y015541D01*
X005637Y015574D02*
X006163Y015574D01*
X006163Y015607D02*
X005637Y015607D01*
X006163Y015942D02*
X006163Y016108D01*
X006163Y015942D02*
X005637Y015942D01*
X005637Y016108D01*
X006163Y016108D01*
X006163Y015975D02*
X005637Y015975D01*
X005637Y016008D02*
X006163Y016008D01*
X006163Y016041D02*
X005637Y016041D01*
X005637Y016074D02*
X006163Y016074D01*
X006163Y016107D02*
X005637Y016107D01*
D12*
X005683Y010901D02*
X005365Y010901D01*
X005683Y010901D02*
X005683Y010663D01*
X005365Y010663D01*
X005365Y010901D01*
X005365Y010698D02*
X005683Y010698D01*
X005683Y010733D02*
X005365Y010733D01*
X005365Y010768D02*
X005683Y010768D01*
X005683Y010803D02*
X005365Y010803D01*
X005365Y010838D02*
X005683Y010838D01*
X005683Y010873D02*
X005365Y010873D01*
X005365Y011787D02*
X005643Y011787D01*
X005643Y011549D01*
X005365Y011549D01*
X005365Y011787D01*
X005365Y011584D02*
X005643Y011584D01*
X005643Y011619D02*
X005365Y011619D01*
X005365Y011654D02*
X005643Y011654D01*
X005643Y011689D02*
X005365Y011689D01*
X005365Y011724D02*
X005643Y011724D01*
X005643Y011759D02*
X005365Y011759D01*
X006024Y012407D02*
X006262Y012407D01*
X006262Y011697D01*
X006024Y011697D01*
X006024Y012407D01*
X006024Y011732D02*
X006262Y011732D01*
X006262Y011767D02*
X006024Y011767D01*
X006024Y011802D02*
X006262Y011802D01*
X006262Y011837D02*
X006024Y011837D01*
X006024Y011872D02*
X006262Y011872D01*
X006262Y011907D02*
X006024Y011907D01*
X006024Y011942D02*
X006262Y011942D01*
X006262Y011977D02*
X006024Y011977D01*
X006024Y012012D02*
X006262Y012012D01*
X006262Y012047D02*
X006024Y012047D01*
X006024Y012082D02*
X006262Y012082D01*
X006262Y012117D02*
X006024Y012117D01*
X006024Y012152D02*
X006262Y012152D01*
X006262Y012187D02*
X006024Y012187D01*
X006024Y012222D02*
X006262Y012222D01*
X006262Y012257D02*
X006024Y012257D01*
X006024Y012292D02*
X006262Y012292D01*
X006262Y012327D02*
X006024Y012327D01*
X006024Y012362D02*
X006262Y012362D01*
X006262Y012397D02*
X006024Y012397D01*
X007205Y012407D02*
X007443Y012407D01*
X007443Y011697D01*
X007205Y011697D01*
X007205Y012407D01*
X007205Y011732D02*
X007443Y011732D01*
X007443Y011767D02*
X007205Y011767D01*
X007205Y011802D02*
X007443Y011802D01*
X007443Y011837D02*
X007205Y011837D01*
X007205Y011872D02*
X007443Y011872D01*
X007443Y011907D02*
X007205Y011907D01*
X007205Y011942D02*
X007443Y011942D01*
X007443Y011977D02*
X007205Y011977D01*
X007205Y012012D02*
X007443Y012012D01*
X007443Y012047D02*
X007205Y012047D01*
X007205Y012082D02*
X007443Y012082D01*
X007443Y012117D02*
X007205Y012117D01*
X007205Y012152D02*
X007443Y012152D01*
X007443Y012187D02*
X007205Y012187D01*
X007205Y012222D02*
X007443Y012222D01*
X007443Y012257D02*
X007205Y012257D01*
X007205Y012292D02*
X007443Y012292D01*
X007443Y012327D02*
X007205Y012327D01*
X007205Y012362D02*
X007443Y012362D01*
X007443Y012397D02*
X007205Y012397D01*
X007796Y012407D02*
X008034Y012407D01*
X008034Y011697D01*
X007796Y011697D01*
X007796Y012407D01*
X007796Y011732D02*
X008034Y011732D01*
X008034Y011767D02*
X007796Y011767D01*
X007796Y011802D02*
X008034Y011802D01*
X008034Y011837D02*
X007796Y011837D01*
X007796Y011872D02*
X008034Y011872D01*
X008034Y011907D02*
X007796Y011907D01*
X007796Y011942D02*
X008034Y011942D01*
X008034Y011977D02*
X007796Y011977D01*
X007796Y012012D02*
X008034Y012012D01*
X008034Y012047D02*
X007796Y012047D01*
X007796Y012082D02*
X008034Y012082D01*
X008034Y012117D02*
X007796Y012117D01*
X007796Y012152D02*
X008034Y012152D01*
X008034Y012187D02*
X007796Y012187D01*
X007796Y012222D02*
X008034Y012222D01*
X008034Y012257D02*
X007796Y012257D01*
X007796Y012292D02*
X008034Y012292D01*
X008034Y012327D02*
X007796Y012327D01*
X007796Y012362D02*
X008034Y012362D01*
X008034Y012397D02*
X007796Y012397D01*
X008357Y011787D02*
X008635Y011787D01*
X008635Y011549D01*
X008357Y011549D01*
X008357Y011787D01*
X008357Y011584D02*
X008635Y011584D01*
X008635Y011619D02*
X008357Y011619D01*
X008357Y011654D02*
X008635Y011654D01*
X008635Y011689D02*
X008357Y011689D01*
X008357Y011724D02*
X008635Y011724D01*
X008635Y011759D02*
X008357Y011759D01*
X008317Y010901D02*
X008635Y010901D01*
X008635Y010663D01*
X008317Y010663D01*
X008317Y010901D01*
X008317Y010698D02*
X008635Y010698D01*
X008635Y010733D02*
X008317Y010733D01*
X008317Y010768D02*
X008635Y010768D01*
X008635Y010803D02*
X008317Y010803D01*
X008317Y010838D02*
X008635Y010838D01*
X008635Y010873D02*
X008317Y010873D01*
D13*
X016590Y018981D02*
X016754Y018981D01*
X016754Y018069D01*
X016590Y018069D01*
X016590Y018981D01*
X016590Y018101D02*
X016754Y018101D01*
X016754Y018133D02*
X016590Y018133D01*
X016590Y018165D02*
X016754Y018165D01*
X016754Y018197D02*
X016590Y018197D01*
X016590Y018229D02*
X016754Y018229D01*
X016754Y018261D02*
X016590Y018261D01*
X016590Y018293D02*
X016754Y018293D01*
X016754Y018325D02*
X016590Y018325D01*
X016590Y018357D02*
X016754Y018357D01*
X016754Y018389D02*
X016590Y018389D01*
X016590Y018421D02*
X016754Y018421D01*
X016754Y018453D02*
X016590Y018453D01*
X016590Y018485D02*
X016754Y018485D01*
X016754Y018517D02*
X016590Y018517D01*
X016590Y018549D02*
X016754Y018549D01*
X016754Y018581D02*
X016590Y018581D01*
X016590Y018613D02*
X016754Y018613D01*
X016754Y018645D02*
X016590Y018645D01*
X016590Y018677D02*
X016754Y018677D01*
X016754Y018709D02*
X016590Y018709D01*
X016590Y018741D02*
X016754Y018741D01*
X016754Y018773D02*
X016590Y018773D01*
X016590Y018805D02*
X016754Y018805D01*
X016754Y018837D02*
X016590Y018837D01*
X016590Y018869D02*
X016754Y018869D01*
X016754Y018901D02*
X016590Y018901D01*
X016590Y018933D02*
X016754Y018933D01*
X016754Y018965D02*
X016590Y018965D01*
X016984Y018981D02*
X017148Y018981D01*
X017148Y018069D01*
X016984Y018069D01*
X016984Y018981D01*
X016984Y018101D02*
X017148Y018101D01*
X017148Y018133D02*
X016984Y018133D01*
X016984Y018165D02*
X017148Y018165D01*
X017148Y018197D02*
X016984Y018197D01*
X016984Y018229D02*
X017148Y018229D01*
X017148Y018261D02*
X016984Y018261D01*
X016984Y018293D02*
X017148Y018293D01*
X017148Y018325D02*
X016984Y018325D01*
X016984Y018357D02*
X017148Y018357D01*
X017148Y018389D02*
X016984Y018389D01*
X016984Y018421D02*
X017148Y018421D01*
X017148Y018453D02*
X016984Y018453D01*
X016984Y018485D02*
X017148Y018485D01*
X017148Y018517D02*
X016984Y018517D01*
X016984Y018549D02*
X017148Y018549D01*
X017148Y018581D02*
X016984Y018581D01*
X016984Y018613D02*
X017148Y018613D01*
X017148Y018645D02*
X016984Y018645D01*
X016984Y018677D02*
X017148Y018677D01*
X017148Y018709D02*
X016984Y018709D01*
X016984Y018741D02*
X017148Y018741D01*
X017148Y018773D02*
X016984Y018773D01*
X016984Y018805D02*
X017148Y018805D01*
X017148Y018837D02*
X016984Y018837D01*
X016984Y018869D02*
X017148Y018869D01*
X017148Y018901D02*
X016984Y018901D01*
X016984Y018933D02*
X017148Y018933D01*
X017148Y018965D02*
X016984Y018965D01*
X017377Y018981D02*
X017541Y018981D01*
X017541Y018069D01*
X017377Y018069D01*
X017377Y018981D01*
X017377Y018101D02*
X017541Y018101D01*
X017541Y018133D02*
X017377Y018133D01*
X017377Y018165D02*
X017541Y018165D01*
X017541Y018197D02*
X017377Y018197D01*
X017377Y018229D02*
X017541Y018229D01*
X017541Y018261D02*
X017377Y018261D01*
X017377Y018293D02*
X017541Y018293D01*
X017541Y018325D02*
X017377Y018325D01*
X017377Y018357D02*
X017541Y018357D01*
X017541Y018389D02*
X017377Y018389D01*
X017377Y018421D02*
X017541Y018421D01*
X017541Y018453D02*
X017377Y018453D01*
X017377Y018485D02*
X017541Y018485D01*
X017541Y018517D02*
X017377Y018517D01*
X017377Y018549D02*
X017541Y018549D01*
X017541Y018581D02*
X017377Y018581D01*
X017377Y018613D02*
X017541Y018613D01*
X017541Y018645D02*
X017377Y018645D01*
X017377Y018677D02*
X017541Y018677D01*
X017541Y018709D02*
X017377Y018709D01*
X017377Y018741D02*
X017541Y018741D01*
X017541Y018773D02*
X017377Y018773D01*
X017377Y018805D02*
X017541Y018805D01*
X017541Y018837D02*
X017377Y018837D01*
X017377Y018869D02*
X017541Y018869D01*
X017541Y018901D02*
X017377Y018901D01*
X017377Y018933D02*
X017541Y018933D01*
X017541Y018965D02*
X017377Y018965D01*
X017771Y018981D02*
X017935Y018981D01*
X017935Y018069D01*
X017771Y018069D01*
X017771Y018981D01*
X017771Y018101D02*
X017935Y018101D01*
X017935Y018133D02*
X017771Y018133D01*
X017771Y018165D02*
X017935Y018165D01*
X017935Y018197D02*
X017771Y018197D01*
X017771Y018229D02*
X017935Y018229D01*
X017935Y018261D02*
X017771Y018261D01*
X017771Y018293D02*
X017935Y018293D01*
X017935Y018325D02*
X017771Y018325D01*
X017771Y018357D02*
X017935Y018357D01*
X017935Y018389D02*
X017771Y018389D01*
X017771Y018421D02*
X017935Y018421D01*
X017935Y018453D02*
X017771Y018453D01*
X017771Y018485D02*
X017935Y018485D01*
X017935Y018517D02*
X017771Y018517D01*
X017771Y018549D02*
X017935Y018549D01*
X017935Y018581D02*
X017771Y018581D01*
X017771Y018613D02*
X017935Y018613D01*
X017935Y018645D02*
X017771Y018645D01*
X017771Y018677D02*
X017935Y018677D01*
X017935Y018709D02*
X017771Y018709D01*
X017771Y018741D02*
X017935Y018741D01*
X017935Y018773D02*
X017771Y018773D01*
X017771Y018805D02*
X017935Y018805D01*
X017935Y018837D02*
X017771Y018837D01*
X017771Y018869D02*
X017935Y018869D01*
X017935Y018901D02*
X017771Y018901D01*
X017771Y018933D02*
X017935Y018933D01*
X017935Y018965D02*
X017771Y018965D01*
X018165Y018981D02*
X018329Y018981D01*
X018329Y018069D01*
X018165Y018069D01*
X018165Y018981D01*
X018165Y018101D02*
X018329Y018101D01*
X018329Y018133D02*
X018165Y018133D01*
X018165Y018165D02*
X018329Y018165D01*
X018329Y018197D02*
X018165Y018197D01*
X018165Y018229D02*
X018329Y018229D01*
X018329Y018261D02*
X018165Y018261D01*
X018165Y018293D02*
X018329Y018293D01*
X018329Y018325D02*
X018165Y018325D01*
X018165Y018357D02*
X018329Y018357D01*
X018329Y018389D02*
X018165Y018389D01*
X018165Y018421D02*
X018329Y018421D01*
X018329Y018453D02*
X018165Y018453D01*
X018165Y018485D02*
X018329Y018485D01*
X018329Y018517D02*
X018165Y018517D01*
X018165Y018549D02*
X018329Y018549D01*
X018329Y018581D02*
X018165Y018581D01*
X018165Y018613D02*
X018329Y018613D01*
X018329Y018645D02*
X018165Y018645D01*
X018165Y018677D02*
X018329Y018677D01*
X018329Y018709D02*
X018165Y018709D01*
X018165Y018741D02*
X018329Y018741D01*
X018329Y018773D02*
X018165Y018773D01*
X018165Y018805D02*
X018329Y018805D01*
X018329Y018837D02*
X018165Y018837D01*
X018165Y018869D02*
X018329Y018869D01*
X018329Y018901D02*
X018165Y018901D01*
X018165Y018933D02*
X018329Y018933D01*
X018329Y018965D02*
X018165Y018965D01*
X018559Y018981D02*
X018723Y018981D01*
X018723Y018069D01*
X018559Y018069D01*
X018559Y018981D01*
X018559Y018101D02*
X018723Y018101D01*
X018723Y018133D02*
X018559Y018133D01*
X018559Y018165D02*
X018723Y018165D01*
X018723Y018197D02*
X018559Y018197D01*
X018559Y018229D02*
X018723Y018229D01*
X018723Y018261D02*
X018559Y018261D01*
X018559Y018293D02*
X018723Y018293D01*
X018723Y018325D02*
X018559Y018325D01*
X018559Y018357D02*
X018723Y018357D01*
X018723Y018389D02*
X018559Y018389D01*
X018559Y018421D02*
X018723Y018421D01*
X018723Y018453D02*
X018559Y018453D01*
X018559Y018485D02*
X018723Y018485D01*
X018723Y018517D02*
X018559Y018517D01*
X018559Y018549D02*
X018723Y018549D01*
X018723Y018581D02*
X018559Y018581D01*
X018559Y018613D02*
X018723Y018613D01*
X018723Y018645D02*
X018559Y018645D01*
X018559Y018677D02*
X018723Y018677D01*
X018723Y018709D02*
X018559Y018709D01*
X018559Y018741D02*
X018723Y018741D01*
X018723Y018773D02*
X018559Y018773D01*
X018559Y018805D02*
X018723Y018805D01*
X018723Y018837D02*
X018559Y018837D01*
X018559Y018869D02*
X018723Y018869D01*
X018723Y018901D02*
X018559Y018901D01*
X018559Y018933D02*
X018723Y018933D01*
X018723Y018965D02*
X018559Y018965D01*
X018952Y018981D02*
X019116Y018981D01*
X019116Y018069D01*
X018952Y018069D01*
X018952Y018981D01*
X018952Y018101D02*
X019116Y018101D01*
X019116Y018133D02*
X018952Y018133D01*
X018952Y018165D02*
X019116Y018165D01*
X019116Y018197D02*
X018952Y018197D01*
X018952Y018229D02*
X019116Y018229D01*
X019116Y018261D02*
X018952Y018261D01*
X018952Y018293D02*
X019116Y018293D01*
X019116Y018325D02*
X018952Y018325D01*
X018952Y018357D02*
X019116Y018357D01*
X019116Y018389D02*
X018952Y018389D01*
X018952Y018421D02*
X019116Y018421D01*
X019116Y018453D02*
X018952Y018453D01*
X018952Y018485D02*
X019116Y018485D01*
X019116Y018517D02*
X018952Y018517D01*
X018952Y018549D02*
X019116Y018549D01*
X019116Y018581D02*
X018952Y018581D01*
X018952Y018613D02*
X019116Y018613D01*
X019116Y018645D02*
X018952Y018645D01*
X018952Y018677D02*
X019116Y018677D01*
X019116Y018709D02*
X018952Y018709D01*
X018952Y018741D02*
X019116Y018741D01*
X019116Y018773D02*
X018952Y018773D01*
X018952Y018805D02*
X019116Y018805D01*
X019116Y018837D02*
X018952Y018837D01*
X018952Y018869D02*
X019116Y018869D01*
X019116Y018901D02*
X018952Y018901D01*
X018952Y018933D02*
X019116Y018933D01*
X019116Y018965D02*
X018952Y018965D01*
X019346Y018981D02*
X019510Y018981D01*
X019510Y018069D01*
X019346Y018069D01*
X019346Y018981D01*
X019346Y018101D02*
X019510Y018101D01*
X019510Y018133D02*
X019346Y018133D01*
X019346Y018165D02*
X019510Y018165D01*
X019510Y018197D02*
X019346Y018197D01*
X019346Y018229D02*
X019510Y018229D01*
X019510Y018261D02*
X019346Y018261D01*
X019346Y018293D02*
X019510Y018293D01*
X019510Y018325D02*
X019346Y018325D01*
X019346Y018357D02*
X019510Y018357D01*
X019510Y018389D02*
X019346Y018389D01*
X019346Y018421D02*
X019510Y018421D01*
X019510Y018453D02*
X019346Y018453D01*
X019346Y018485D02*
X019510Y018485D01*
X019510Y018517D02*
X019346Y018517D01*
X019346Y018549D02*
X019510Y018549D01*
X019510Y018581D02*
X019346Y018581D01*
X019346Y018613D02*
X019510Y018613D01*
X019510Y018645D02*
X019346Y018645D01*
X019346Y018677D02*
X019510Y018677D01*
X019510Y018709D02*
X019346Y018709D01*
X019346Y018741D02*
X019510Y018741D01*
X019510Y018773D02*
X019346Y018773D01*
X019346Y018805D02*
X019510Y018805D01*
X019510Y018837D02*
X019346Y018837D01*
X019346Y018869D02*
X019510Y018869D01*
X019510Y018901D02*
X019346Y018901D01*
X019346Y018933D02*
X019510Y018933D01*
X019510Y018965D02*
X019346Y018965D01*
M02*
