G75*
%MOIN*%
%OFA0B0*%
%FSLAX24Y24*%
%IPPOS*%
%LPD*%
%AMOC8*
5,1,8,0,0,1.08239X$1,22.5*
%
%ADD10C,0.0020*%
%ADD11C,0.0060*%
D10*
X009100Y012975D02*
X009100Y015675D01*
X009400Y015675D02*
X009400Y012975D01*
X009401Y012937D01*
X009406Y012900D01*
X009413Y012863D01*
X009422Y012827D01*
X009435Y012791D01*
X009450Y012757D01*
X009100Y012975D02*
X009102Y012919D01*
X009108Y012864D01*
X009117Y012809D01*
X009131Y012755D01*
X009148Y012702D01*
X009169Y012651D01*
X009193Y012601D01*
X009221Y012553D01*
X009252Y012506D01*
X009286Y012463D01*
X009323Y012421D01*
X009363Y012382D01*
X009405Y012346D01*
X009450Y012314D01*
X010350Y012757D02*
X010365Y012791D01*
X010378Y012827D01*
X010387Y012863D01*
X010394Y012900D01*
X010399Y012937D01*
X010400Y012975D01*
X010400Y015675D01*
X010700Y015675D02*
X010700Y012975D01*
X010698Y012919D01*
X010692Y012864D01*
X010683Y012809D01*
X010669Y012755D01*
X010652Y012702D01*
X010631Y012651D01*
X010607Y012601D01*
X010579Y012553D01*
X010548Y012506D01*
X010514Y012462D01*
X010477Y012421D01*
X010437Y012382D01*
X010395Y012346D01*
X010350Y012314D01*
X009900Y013925D02*
X009900Y014075D01*
X009900Y014575D02*
X009900Y014725D01*
X009100Y015675D02*
X009102Y015731D01*
X009108Y015786D01*
X009117Y015841D01*
X009131Y015895D01*
X009148Y015948D01*
X009169Y015999D01*
X009193Y016049D01*
X009221Y016097D01*
X009252Y016144D01*
X009286Y016188D01*
X009323Y016229D01*
X009363Y016268D01*
X009405Y016304D01*
X009450Y016336D01*
X010350Y016336D02*
X010395Y016304D01*
X010437Y016268D01*
X010477Y016229D01*
X010514Y016187D01*
X010548Y016144D01*
X010579Y016097D01*
X010607Y016049D01*
X010631Y015999D01*
X010652Y015948D01*
X010669Y015895D01*
X010683Y015841D01*
X010692Y015786D01*
X010698Y015731D01*
X010700Y015675D01*
X010400Y015675D02*
X010399Y015713D01*
X010394Y015750D01*
X010387Y015787D01*
X010378Y015823D01*
X010365Y015859D01*
X010350Y015893D01*
X009450Y015893D02*
X009435Y015859D01*
X009422Y015823D01*
X009413Y015787D01*
X009406Y015750D01*
X009401Y015713D01*
X009400Y015675D01*
D11*
X009450Y012075D02*
X009050Y012075D01*
X009033Y012077D01*
X009016Y012081D01*
X009000Y012088D01*
X008986Y012098D01*
X008973Y012111D01*
X008963Y012125D01*
X008956Y012141D01*
X008952Y012158D01*
X008950Y012175D01*
X008950Y016475D01*
X008952Y016492D01*
X008956Y016509D01*
X008963Y016525D01*
X008973Y016539D01*
X008986Y016552D01*
X009000Y016562D01*
X009016Y016569D01*
X009033Y016573D01*
X009050Y016575D01*
X009450Y016575D01*
X010350Y016575D02*
X010750Y016575D01*
X010767Y016573D01*
X010784Y016569D01*
X010800Y016562D01*
X010814Y016552D01*
X010827Y016539D01*
X010837Y016525D01*
X010844Y016509D01*
X010848Y016492D01*
X010850Y016475D01*
X010850Y012175D01*
X010848Y012158D01*
X010844Y012141D01*
X010837Y012125D01*
X010827Y012111D01*
X010814Y012098D01*
X010800Y012088D01*
X010784Y012081D01*
X010767Y012077D01*
X010750Y012075D01*
X010350Y012075D01*
X010150Y014075D02*
X009900Y014075D01*
X009650Y014075D01*
X009650Y014225D02*
X009650Y014425D01*
X010150Y014425D01*
X010150Y014225D01*
X009650Y014225D01*
X009650Y014575D02*
X009900Y014575D01*
X010150Y014575D01*
M02*
