G75*
%MOIN*%
%OFA0B0*%
%FSLAX24Y24*%
%IPPOS*%
%LPD*%
%AMOC8*
5,1,8,0,0,1.08239X$1,22.5*
%
%ADD10OC8,0.0650*%
%ADD11C,0.0600*%
%ADD12C,0.0045*%
%ADD13C,0.0045*%
%ADD14C,0.0346*%
%ADD15C,0.0044*%
D10*
X011400Y018325D03*
X012400Y018325D03*
X013400Y018325D03*
X013400Y019325D03*
X012400Y019325D03*
X011400Y019325D03*
D11*
X003540Y018275D02*
X003260Y018275D01*
X003260Y017275D02*
X003540Y017275D01*
X003540Y016275D02*
X003260Y016275D01*
X003260Y015275D02*
X003540Y015275D01*
X003540Y014275D02*
X003260Y014275D01*
X003260Y013275D02*
X003540Y013275D01*
X003540Y012275D02*
X003260Y012275D01*
X003260Y011275D02*
X003540Y011275D01*
X022260Y013275D02*
X022540Y013275D01*
X022540Y014275D02*
X022260Y014275D01*
X022260Y015275D02*
X022540Y015275D01*
X022540Y016275D02*
X022260Y016275D01*
X022260Y017275D02*
X022540Y017275D01*
X022540Y018275D02*
X022260Y018275D01*
D12*
X008340Y016135D02*
X008340Y015915D01*
X007760Y015915D01*
X007760Y016135D01*
X008340Y016135D01*
X008340Y015959D02*
X007760Y015959D01*
X007760Y016003D02*
X008340Y016003D01*
X008340Y016047D02*
X007760Y016047D01*
X007760Y016091D02*
X008340Y016091D01*
X008340Y016135D02*
X007760Y016135D01*
X008340Y015635D02*
X008340Y015415D01*
X007760Y015415D01*
X007760Y015635D01*
X008340Y015635D01*
X008340Y015459D02*
X007760Y015459D01*
X007760Y015503D02*
X008340Y015503D01*
X008340Y015547D02*
X007760Y015547D01*
X007760Y015591D02*
X008340Y015591D01*
X008340Y015635D02*
X007760Y015635D01*
X008340Y015135D02*
X008340Y014915D01*
X007760Y014915D01*
X007760Y015135D01*
X008340Y015135D01*
X008340Y014959D02*
X007760Y014959D01*
X007760Y015003D02*
X008340Y015003D01*
X008340Y015047D02*
X007760Y015047D01*
X007760Y015091D02*
X008340Y015091D01*
X008340Y015135D02*
X007760Y015135D01*
X008340Y014635D02*
X008340Y014415D01*
X007760Y014415D01*
X007760Y014635D01*
X008340Y014635D01*
X008340Y014459D02*
X007760Y014459D01*
X007760Y014503D02*
X008340Y014503D01*
X008340Y014547D02*
X007760Y014547D01*
X007760Y014591D02*
X008340Y014591D01*
X008340Y014635D02*
X007760Y014635D01*
X008340Y014135D02*
X008340Y013915D01*
X007760Y013915D01*
X007760Y014135D01*
X008340Y014135D01*
X008340Y013959D02*
X007760Y013959D01*
X007760Y014003D02*
X008340Y014003D01*
X008340Y014047D02*
X007760Y014047D01*
X007760Y014091D02*
X008340Y014091D01*
X008340Y014135D02*
X007760Y014135D01*
X008340Y013635D02*
X008340Y013415D01*
X007760Y013415D01*
X007760Y013635D01*
X008340Y013635D01*
X008340Y013459D02*
X007760Y013459D01*
X007760Y013503D02*
X008340Y013503D01*
X008340Y013547D02*
X007760Y013547D01*
X007760Y013591D02*
X008340Y013591D01*
X008340Y013635D02*
X007760Y013635D01*
X008340Y013135D02*
X008340Y012915D01*
X007760Y012915D01*
X007760Y013135D01*
X008340Y013135D01*
X008340Y012959D02*
X007760Y012959D01*
X007760Y013003D02*
X008340Y013003D01*
X008340Y013047D02*
X007760Y013047D01*
X007760Y013091D02*
X008340Y013091D01*
X008340Y013135D02*
X007760Y013135D01*
X006190Y013135D02*
X006190Y012915D01*
X005610Y012915D01*
X005610Y013135D01*
X006190Y013135D01*
X006190Y012959D02*
X005610Y012959D01*
X005610Y013003D02*
X006190Y013003D01*
X006190Y013047D02*
X005610Y013047D01*
X005610Y013091D02*
X006190Y013091D01*
X006190Y013135D02*
X005610Y013135D01*
X006190Y013415D02*
X006190Y013635D01*
X006190Y013415D02*
X005610Y013415D01*
X005610Y013635D01*
X006190Y013635D01*
X006190Y013459D02*
X005610Y013459D01*
X005610Y013503D02*
X006190Y013503D01*
X006190Y013547D02*
X005610Y013547D01*
X005610Y013591D02*
X006190Y013591D01*
X006190Y013635D02*
X005610Y013635D01*
X006190Y013915D02*
X006190Y014135D01*
X006190Y013915D02*
X005610Y013915D01*
X005610Y014135D01*
X006190Y014135D01*
X006190Y013959D02*
X005610Y013959D01*
X005610Y014003D02*
X006190Y014003D01*
X006190Y014047D02*
X005610Y014047D01*
X005610Y014091D02*
X006190Y014091D01*
X006190Y014135D02*
X005610Y014135D01*
X006190Y014415D02*
X006190Y014635D01*
X006190Y014415D02*
X005610Y014415D01*
X005610Y014635D01*
X006190Y014635D01*
X006190Y014459D02*
X005610Y014459D01*
X005610Y014503D02*
X006190Y014503D01*
X006190Y014547D02*
X005610Y014547D01*
X005610Y014591D02*
X006190Y014591D01*
X006190Y014635D02*
X005610Y014635D01*
X006190Y014915D02*
X006190Y015135D01*
X006190Y014915D02*
X005610Y014915D01*
X005610Y015135D01*
X006190Y015135D01*
X006190Y014959D02*
X005610Y014959D01*
X005610Y015003D02*
X006190Y015003D01*
X006190Y015047D02*
X005610Y015047D01*
X005610Y015091D02*
X006190Y015091D01*
X006190Y015135D02*
X005610Y015135D01*
X006190Y015415D02*
X006190Y015635D01*
X006190Y015415D02*
X005610Y015415D01*
X005610Y015635D01*
X006190Y015635D01*
X006190Y015459D02*
X005610Y015459D01*
X005610Y015503D02*
X006190Y015503D01*
X006190Y015547D02*
X005610Y015547D01*
X005610Y015591D02*
X006190Y015591D01*
X006190Y015635D02*
X005610Y015635D01*
X006190Y015915D02*
X006190Y016135D01*
X006190Y015915D02*
X005610Y015915D01*
X005610Y016135D01*
X006190Y016135D01*
X006190Y015959D02*
X005610Y015959D01*
X005610Y016003D02*
X006190Y016003D01*
X006190Y016047D02*
X005610Y016047D01*
X005610Y016091D02*
X006190Y016091D01*
X006190Y016135D02*
X005610Y016135D01*
D13*
X005714Y010933D02*
X005334Y010933D01*
X005714Y010933D02*
X005714Y010631D01*
X005334Y010631D01*
X005334Y010933D01*
X005334Y010675D02*
X005714Y010675D01*
X005714Y010719D02*
X005334Y010719D01*
X005334Y010763D02*
X005714Y010763D01*
X005714Y010807D02*
X005334Y010807D01*
X005334Y010851D02*
X005714Y010851D01*
X005714Y010895D02*
X005334Y010895D01*
X005333Y011819D02*
X005675Y011819D01*
X005675Y011517D01*
X005333Y011517D01*
X005333Y011819D01*
X005333Y011561D02*
X005675Y011561D01*
X005675Y011605D02*
X005333Y011605D01*
X005333Y011649D02*
X005675Y011649D01*
X005675Y011693D02*
X005333Y011693D01*
X005333Y011737D02*
X005675Y011737D01*
X005675Y011781D02*
X005333Y011781D01*
X005992Y012439D02*
X006294Y012439D01*
X006294Y011665D01*
X005992Y011665D01*
X005992Y012439D01*
X005992Y011709D02*
X006294Y011709D01*
X006294Y011753D02*
X005992Y011753D01*
X005992Y011797D02*
X006294Y011797D01*
X006294Y011841D02*
X005992Y011841D01*
X005992Y011885D02*
X006294Y011885D01*
X006294Y011929D02*
X005992Y011929D01*
X005992Y011973D02*
X006294Y011973D01*
X006294Y012017D02*
X005992Y012017D01*
X005992Y012061D02*
X006294Y012061D01*
X006294Y012105D02*
X005992Y012105D01*
X005992Y012149D02*
X006294Y012149D01*
X006294Y012193D02*
X005992Y012193D01*
X005992Y012237D02*
X006294Y012237D01*
X006294Y012281D02*
X005992Y012281D01*
X005992Y012325D02*
X006294Y012325D01*
X006294Y012369D02*
X005992Y012369D01*
X005992Y012413D02*
X006294Y012413D01*
X007173Y012439D02*
X007475Y012439D01*
X007475Y011665D01*
X007173Y011665D01*
X007173Y012439D01*
X007173Y011709D02*
X007475Y011709D01*
X007475Y011753D02*
X007173Y011753D01*
X007173Y011797D02*
X007475Y011797D01*
X007475Y011841D02*
X007173Y011841D01*
X007173Y011885D02*
X007475Y011885D01*
X007475Y011929D02*
X007173Y011929D01*
X007173Y011973D02*
X007475Y011973D01*
X007475Y012017D02*
X007173Y012017D01*
X007173Y012061D02*
X007475Y012061D01*
X007475Y012105D02*
X007173Y012105D01*
X007173Y012149D02*
X007475Y012149D01*
X007475Y012193D02*
X007173Y012193D01*
X007173Y012237D02*
X007475Y012237D01*
X007475Y012281D02*
X007173Y012281D01*
X007173Y012325D02*
X007475Y012325D01*
X007475Y012369D02*
X007173Y012369D01*
X007173Y012413D02*
X007475Y012413D01*
X007764Y012439D02*
X008066Y012439D01*
X008066Y011665D01*
X007764Y011665D01*
X007764Y012439D01*
X007764Y011709D02*
X008066Y011709D01*
X008066Y011753D02*
X007764Y011753D01*
X007764Y011797D02*
X008066Y011797D01*
X008066Y011841D02*
X007764Y011841D01*
X007764Y011885D02*
X008066Y011885D01*
X008066Y011929D02*
X007764Y011929D01*
X007764Y011973D02*
X008066Y011973D01*
X008066Y012017D02*
X007764Y012017D01*
X007764Y012061D02*
X008066Y012061D01*
X008066Y012105D02*
X007764Y012105D01*
X007764Y012149D02*
X008066Y012149D01*
X008066Y012193D02*
X007764Y012193D01*
X007764Y012237D02*
X008066Y012237D01*
X008066Y012281D02*
X007764Y012281D01*
X007764Y012325D02*
X008066Y012325D01*
X008066Y012369D02*
X007764Y012369D01*
X007764Y012413D02*
X008066Y012413D01*
X008325Y011819D02*
X008667Y011819D01*
X008667Y011517D01*
X008325Y011517D01*
X008325Y011819D01*
X008325Y011561D02*
X008667Y011561D01*
X008667Y011605D02*
X008325Y011605D01*
X008325Y011649D02*
X008667Y011649D01*
X008667Y011693D02*
X008325Y011693D01*
X008325Y011737D02*
X008667Y011737D01*
X008667Y011781D02*
X008325Y011781D01*
X008286Y010933D02*
X008666Y010933D01*
X008666Y010631D01*
X008286Y010631D01*
X008286Y010933D01*
X008286Y010675D02*
X008666Y010675D01*
X008666Y010719D02*
X008286Y010719D01*
X008286Y010763D02*
X008666Y010763D01*
X008666Y010807D02*
X008286Y010807D01*
X008286Y010851D02*
X008666Y010851D01*
X008666Y010895D02*
X008286Y010895D01*
D14*
X007591Y011225D03*
X006409Y011225D03*
D15*
X016564Y019007D02*
X016780Y019007D01*
X016780Y018043D01*
X016564Y018043D01*
X016564Y019007D01*
X016564Y018086D02*
X016780Y018086D01*
X016780Y018129D02*
X016564Y018129D01*
X016564Y018172D02*
X016780Y018172D01*
X016780Y018215D02*
X016564Y018215D01*
X016564Y018258D02*
X016780Y018258D01*
X016780Y018301D02*
X016564Y018301D01*
X016564Y018344D02*
X016780Y018344D01*
X016780Y018387D02*
X016564Y018387D01*
X016564Y018430D02*
X016780Y018430D01*
X016780Y018473D02*
X016564Y018473D01*
X016564Y018516D02*
X016780Y018516D01*
X016780Y018559D02*
X016564Y018559D01*
X016564Y018602D02*
X016780Y018602D01*
X016780Y018645D02*
X016564Y018645D01*
X016564Y018688D02*
X016780Y018688D01*
X016780Y018731D02*
X016564Y018731D01*
X016564Y018774D02*
X016780Y018774D01*
X016780Y018817D02*
X016564Y018817D01*
X016564Y018860D02*
X016780Y018860D01*
X016780Y018903D02*
X016564Y018903D01*
X016564Y018946D02*
X016780Y018946D01*
X016780Y018989D02*
X016564Y018989D01*
X016958Y019007D02*
X017174Y019007D01*
X017174Y018043D01*
X016958Y018043D01*
X016958Y019007D01*
X016958Y018086D02*
X017174Y018086D01*
X017174Y018129D02*
X016958Y018129D01*
X016958Y018172D02*
X017174Y018172D01*
X017174Y018215D02*
X016958Y018215D01*
X016958Y018258D02*
X017174Y018258D01*
X017174Y018301D02*
X016958Y018301D01*
X016958Y018344D02*
X017174Y018344D01*
X017174Y018387D02*
X016958Y018387D01*
X016958Y018430D02*
X017174Y018430D01*
X017174Y018473D02*
X016958Y018473D01*
X016958Y018516D02*
X017174Y018516D01*
X017174Y018559D02*
X016958Y018559D01*
X016958Y018602D02*
X017174Y018602D01*
X017174Y018645D02*
X016958Y018645D01*
X016958Y018688D02*
X017174Y018688D01*
X017174Y018731D02*
X016958Y018731D01*
X016958Y018774D02*
X017174Y018774D01*
X017174Y018817D02*
X016958Y018817D01*
X016958Y018860D02*
X017174Y018860D01*
X017174Y018903D02*
X016958Y018903D01*
X016958Y018946D02*
X017174Y018946D01*
X017174Y018989D02*
X016958Y018989D01*
X017351Y019007D02*
X017567Y019007D01*
X017567Y018043D01*
X017351Y018043D01*
X017351Y019007D01*
X017351Y018086D02*
X017567Y018086D01*
X017567Y018129D02*
X017351Y018129D01*
X017351Y018172D02*
X017567Y018172D01*
X017567Y018215D02*
X017351Y018215D01*
X017351Y018258D02*
X017567Y018258D01*
X017567Y018301D02*
X017351Y018301D01*
X017351Y018344D02*
X017567Y018344D01*
X017567Y018387D02*
X017351Y018387D01*
X017351Y018430D02*
X017567Y018430D01*
X017567Y018473D02*
X017351Y018473D01*
X017351Y018516D02*
X017567Y018516D01*
X017567Y018559D02*
X017351Y018559D01*
X017351Y018602D02*
X017567Y018602D01*
X017567Y018645D02*
X017351Y018645D01*
X017351Y018688D02*
X017567Y018688D01*
X017567Y018731D02*
X017351Y018731D01*
X017351Y018774D02*
X017567Y018774D01*
X017567Y018817D02*
X017351Y018817D01*
X017351Y018860D02*
X017567Y018860D01*
X017567Y018903D02*
X017351Y018903D01*
X017351Y018946D02*
X017567Y018946D01*
X017567Y018989D02*
X017351Y018989D01*
X017745Y019007D02*
X017961Y019007D01*
X017961Y018043D01*
X017745Y018043D01*
X017745Y019007D01*
X017745Y018086D02*
X017961Y018086D01*
X017961Y018129D02*
X017745Y018129D01*
X017745Y018172D02*
X017961Y018172D01*
X017961Y018215D02*
X017745Y018215D01*
X017745Y018258D02*
X017961Y018258D01*
X017961Y018301D02*
X017745Y018301D01*
X017745Y018344D02*
X017961Y018344D01*
X017961Y018387D02*
X017745Y018387D01*
X017745Y018430D02*
X017961Y018430D01*
X017961Y018473D02*
X017745Y018473D01*
X017745Y018516D02*
X017961Y018516D01*
X017961Y018559D02*
X017745Y018559D01*
X017745Y018602D02*
X017961Y018602D01*
X017961Y018645D02*
X017745Y018645D01*
X017745Y018688D02*
X017961Y018688D01*
X017961Y018731D02*
X017745Y018731D01*
X017745Y018774D02*
X017961Y018774D01*
X017961Y018817D02*
X017745Y018817D01*
X017745Y018860D02*
X017961Y018860D01*
X017961Y018903D02*
X017745Y018903D01*
X017745Y018946D02*
X017961Y018946D01*
X017961Y018989D02*
X017745Y018989D01*
X018139Y019007D02*
X018355Y019007D01*
X018355Y018043D01*
X018139Y018043D01*
X018139Y019007D01*
X018139Y018086D02*
X018355Y018086D01*
X018355Y018129D02*
X018139Y018129D01*
X018139Y018172D02*
X018355Y018172D01*
X018355Y018215D02*
X018139Y018215D01*
X018139Y018258D02*
X018355Y018258D01*
X018355Y018301D02*
X018139Y018301D01*
X018139Y018344D02*
X018355Y018344D01*
X018355Y018387D02*
X018139Y018387D01*
X018139Y018430D02*
X018355Y018430D01*
X018355Y018473D02*
X018139Y018473D01*
X018139Y018516D02*
X018355Y018516D01*
X018355Y018559D02*
X018139Y018559D01*
X018139Y018602D02*
X018355Y018602D01*
X018355Y018645D02*
X018139Y018645D01*
X018139Y018688D02*
X018355Y018688D01*
X018355Y018731D02*
X018139Y018731D01*
X018139Y018774D02*
X018355Y018774D01*
X018355Y018817D02*
X018139Y018817D01*
X018139Y018860D02*
X018355Y018860D01*
X018355Y018903D02*
X018139Y018903D01*
X018139Y018946D02*
X018355Y018946D01*
X018355Y018989D02*
X018139Y018989D01*
X018533Y019007D02*
X018749Y019007D01*
X018749Y018043D01*
X018533Y018043D01*
X018533Y019007D01*
X018533Y018086D02*
X018749Y018086D01*
X018749Y018129D02*
X018533Y018129D01*
X018533Y018172D02*
X018749Y018172D01*
X018749Y018215D02*
X018533Y018215D01*
X018533Y018258D02*
X018749Y018258D01*
X018749Y018301D02*
X018533Y018301D01*
X018533Y018344D02*
X018749Y018344D01*
X018749Y018387D02*
X018533Y018387D01*
X018533Y018430D02*
X018749Y018430D01*
X018749Y018473D02*
X018533Y018473D01*
X018533Y018516D02*
X018749Y018516D01*
X018749Y018559D02*
X018533Y018559D01*
X018533Y018602D02*
X018749Y018602D01*
X018749Y018645D02*
X018533Y018645D01*
X018533Y018688D02*
X018749Y018688D01*
X018749Y018731D02*
X018533Y018731D01*
X018533Y018774D02*
X018749Y018774D01*
X018749Y018817D02*
X018533Y018817D01*
X018533Y018860D02*
X018749Y018860D01*
X018749Y018903D02*
X018533Y018903D01*
X018533Y018946D02*
X018749Y018946D01*
X018749Y018989D02*
X018533Y018989D01*
X018926Y019007D02*
X019142Y019007D01*
X019142Y018043D01*
X018926Y018043D01*
X018926Y019007D01*
X018926Y018086D02*
X019142Y018086D01*
X019142Y018129D02*
X018926Y018129D01*
X018926Y018172D02*
X019142Y018172D01*
X019142Y018215D02*
X018926Y018215D01*
X018926Y018258D02*
X019142Y018258D01*
X019142Y018301D02*
X018926Y018301D01*
X018926Y018344D02*
X019142Y018344D01*
X019142Y018387D02*
X018926Y018387D01*
X018926Y018430D02*
X019142Y018430D01*
X019142Y018473D02*
X018926Y018473D01*
X018926Y018516D02*
X019142Y018516D01*
X019142Y018559D02*
X018926Y018559D01*
X018926Y018602D02*
X019142Y018602D01*
X019142Y018645D02*
X018926Y018645D01*
X018926Y018688D02*
X019142Y018688D01*
X019142Y018731D02*
X018926Y018731D01*
X018926Y018774D02*
X019142Y018774D01*
X019142Y018817D02*
X018926Y018817D01*
X018926Y018860D02*
X019142Y018860D01*
X019142Y018903D02*
X018926Y018903D01*
X018926Y018946D02*
X019142Y018946D01*
X019142Y018989D02*
X018926Y018989D01*
X019320Y019007D02*
X019536Y019007D01*
X019536Y018043D01*
X019320Y018043D01*
X019320Y019007D01*
X019320Y018086D02*
X019536Y018086D01*
X019536Y018129D02*
X019320Y018129D01*
X019320Y018172D02*
X019536Y018172D01*
X019536Y018215D02*
X019320Y018215D01*
X019320Y018258D02*
X019536Y018258D01*
X019536Y018301D02*
X019320Y018301D01*
X019320Y018344D02*
X019536Y018344D01*
X019536Y018387D02*
X019320Y018387D01*
X019320Y018430D02*
X019536Y018430D01*
X019536Y018473D02*
X019320Y018473D01*
X019320Y018516D02*
X019536Y018516D01*
X019536Y018559D02*
X019320Y018559D01*
X019320Y018602D02*
X019536Y018602D01*
X019536Y018645D02*
X019320Y018645D01*
X019320Y018688D02*
X019536Y018688D01*
X019536Y018731D02*
X019320Y018731D01*
X019320Y018774D02*
X019536Y018774D01*
X019536Y018817D02*
X019320Y018817D01*
X019320Y018860D02*
X019536Y018860D01*
X019536Y018903D02*
X019320Y018903D01*
X019320Y018946D02*
X019536Y018946D01*
X019536Y018989D02*
X019320Y018989D01*
M02*
