G75*
%MOIN*%
%OFA0B0*%
%FSLAX24Y24*%
%IPPOS*%
%LPD*%
%AMOC8*
5,1,8,0,0,1.08239X$1,22.5*
%
%ADD10C,0.0100*%
%ADD11C,0.0050*%
%ADD12C,0.0090*%
%ADD13C,0.0070*%
%ADD14C,0.0060*%
%ADD15R,0.0200X0.0200*%
%ADD16R,0.0400X0.0010*%
%ADD17R,0.0760X0.0010*%
%ADD18R,0.0960X0.0010*%
%ADD19R,0.1030X0.0010*%
%ADD20R,0.1120X0.0010*%
%ADD21R,0.1190X0.0010*%
%ADD22R,0.1220X0.0010*%
%ADD23R,0.1260X0.0010*%
%ADD24R,0.1300X0.0010*%
%ADD25R,0.1320X0.0010*%
%ADD26R,0.1350X0.0010*%
%ADD27R,0.1370X0.0010*%
%ADD28R,0.1380X0.0010*%
%ADD29R,0.1400X0.0010*%
%ADD30R,0.1420X0.0010*%
%ADD31R,0.0600X0.0010*%
%ADD32R,0.0610X0.0010*%
%ADD33R,0.0420X0.0010*%
%ADD34R,0.0330X0.0010*%
%ADD35R,0.0360X0.0010*%
%ADD36R,0.0320X0.0010*%
%ADD37R,0.0280X0.0010*%
%ADD38R,0.0300X0.0010*%
%ADD39R,0.0260X0.0010*%
%ADD40R,0.0270X0.0010*%
%ADD41R,0.0240X0.0010*%
%ADD42R,0.0250X0.0010*%
%ADD43R,0.0230X0.0010*%
%ADD44R,0.0220X0.0010*%
%ADD45R,0.0210X0.0010*%
%ADD46R,0.0200X0.0010*%
%ADD47R,0.0190X0.0010*%
%ADD48R,0.0180X0.0010*%
%ADD49R,0.0170X0.0010*%
%ADD50R,0.0480X0.0010*%
%ADD51R,0.1410X0.0010*%
%ADD52R,0.1390X0.0010*%
%ADD53R,0.1360X0.0010*%
%ADD54R,0.1330X0.0010*%
%ADD55R,0.1310X0.0010*%
%ADD56R,0.1210X0.0010*%
%ADD57R,0.1160X0.0010*%
%ADD58R,0.1090X0.0010*%
%ADD59R,0.0970X0.0010*%
%ADD60R,0.0840X0.0010*%
%ADD61R,0.0660X0.0010*%
%ADD62R,0.0050X0.0010*%
%ADD63R,0.0790X0.0010*%
%ADD64R,0.0800X0.0010*%
%ADD65R,0.0780X0.0010*%
%ADD66R,0.0310X0.0010*%
%ADD67R,0.0290X0.0010*%
%ADD68R,0.0150X0.0010*%
%ADD69R,0.0160X0.0010*%
%ADD70R,0.0140X0.0010*%
%ADD71R,0.0130X0.0010*%
%ADD72R,0.0640X0.0010*%
%ADD73R,0.0590X0.0010*%
%ADD74R,0.0560X0.0010*%
%ADD75R,0.0540X0.0010*%
%ADD76R,0.0500X0.0010*%
%ADD77R,0.0470X0.0010*%
%ADD78R,0.0430X0.0010*%
%ADD79R,0.0030X0.0010*%
%ADD80R,0.0040X0.0010*%
%ADD81R,0.0020X0.0010*%
%ADD82R,0.0400X0.0140*%
%ADD83C,0.0020*%
%ADD84C,0.0010*%
%ADD85C,0.0039*%
%ADD86C,0.0000*%
%ADD87C,0.0010*%
%ADD88C,0.0040*%
D10*
X002750Y010275D02*
X010050Y010275D01*
X012050Y012275D01*
X023000Y012275D01*
X023006Y012275D02*
X023045Y012277D01*
X023083Y012283D01*
X023120Y012292D01*
X023157Y012305D01*
X023192Y012322D01*
X023225Y012341D01*
X023256Y012364D01*
X023285Y012390D01*
X023311Y012419D01*
X023334Y012450D01*
X023353Y012483D01*
X023370Y012518D01*
X023383Y012555D01*
X023392Y012592D01*
X023398Y012630D01*
X023400Y012669D01*
X023400Y012675D02*
X023400Y018875D01*
X023400Y018881D02*
X023398Y018920D01*
X023392Y018958D01*
X023383Y018995D01*
X023370Y019032D01*
X023353Y019067D01*
X023334Y019100D01*
X023311Y019131D01*
X023285Y019160D01*
X023256Y019186D01*
X023225Y019209D01*
X023192Y019228D01*
X023157Y019245D01*
X023120Y019258D01*
X023083Y019267D01*
X023045Y019273D01*
X023006Y019275D01*
X022400Y019275D01*
X021400Y020275D01*
X004000Y020275D01*
X002400Y018675D01*
X002400Y010675D01*
X002400Y010669D02*
X002402Y010630D01*
X002408Y010592D01*
X002417Y010555D01*
X002430Y010518D01*
X002447Y010483D01*
X002466Y010450D01*
X002489Y010419D01*
X002515Y010390D01*
X002544Y010364D01*
X002575Y010341D01*
X002608Y010322D01*
X002643Y010305D01*
X002680Y010292D01*
X002717Y010283D01*
X002755Y010277D01*
X002794Y010275D01*
D11*
X005681Y010694D02*
X006429Y010694D01*
X006941Y010694D01*
X008319Y010694D01*
X008319Y011756D01*
X007993Y011756D01*
X007836Y011756D01*
X007403Y011756D01*
X007245Y011756D01*
X006222Y011756D01*
X006064Y011756D01*
X005681Y011756D01*
X005681Y011579D01*
X005681Y010694D01*
X005819Y010694D02*
X007020Y010694D01*
X007020Y010103D01*
X007531Y010103D01*
X007531Y010694D01*
X008181Y010694D01*
X008319Y010989D02*
X008319Y011501D01*
X007531Y010694D02*
X007020Y010694D01*
X007118Y011756D02*
X006449Y011756D01*
X005681Y011501D02*
X005681Y010989D01*
X006270Y012845D02*
X007680Y012845D01*
X007680Y016205D01*
X006270Y016205D01*
X006270Y012845D01*
X006675Y013500D02*
X007050Y013500D01*
X007125Y013575D01*
X007125Y013725D01*
X007050Y013800D01*
X006675Y013800D01*
X006750Y013960D02*
X006675Y014035D01*
X006675Y014186D01*
X006750Y014261D01*
X006750Y014421D02*
X006675Y014496D01*
X006675Y014646D01*
X006750Y014721D01*
X006825Y014721D01*
X006900Y014646D01*
X006975Y014721D01*
X007050Y014721D01*
X007125Y014646D01*
X007125Y014496D01*
X007050Y014421D01*
X007050Y014261D02*
X006975Y014261D01*
X006900Y014186D01*
X006900Y014035D01*
X006825Y013960D01*
X006750Y013960D01*
X006600Y014111D02*
X007200Y014111D01*
X007125Y014035D02*
X007125Y014186D01*
X007050Y014261D01*
X007125Y014035D02*
X007050Y013960D01*
X006900Y014571D02*
X006900Y014646D01*
X007170Y013145D02*
X007172Y013174D01*
X007178Y013202D01*
X007187Y013229D01*
X007201Y013254D01*
X007217Y013278D01*
X007237Y013298D01*
X007259Y013317D01*
X007283Y013331D01*
X007310Y013343D01*
X007337Y013351D01*
X007366Y013355D01*
X007394Y013355D01*
X007423Y013351D01*
X007450Y013343D01*
X007477Y013331D01*
X007501Y013317D01*
X007523Y013298D01*
X007543Y013278D01*
X007559Y013254D01*
X007573Y013229D01*
X007582Y013202D01*
X007588Y013174D01*
X007590Y013145D01*
X007588Y013116D01*
X007582Y013088D01*
X007573Y013061D01*
X007559Y013036D01*
X007543Y013012D01*
X007523Y012992D01*
X007501Y012973D01*
X007477Y012959D01*
X007450Y012947D01*
X007423Y012939D01*
X007394Y012935D01*
X007366Y012935D01*
X007337Y012939D01*
X007310Y012947D01*
X007283Y012959D01*
X007259Y012973D01*
X007237Y012992D01*
X007217Y013012D01*
X007201Y013036D01*
X007187Y013061D01*
X007178Y013088D01*
X007172Y013116D01*
X007170Y013145D01*
X012172Y017325D02*
X012322Y017325D01*
X012247Y017325D02*
X012247Y017776D01*
X012172Y017776D02*
X012322Y017776D01*
X012479Y017701D02*
X012479Y017400D01*
X012554Y017325D01*
X012704Y017325D01*
X012780Y017400D01*
X012940Y017400D02*
X013015Y017325D01*
X013165Y017325D01*
X013240Y017400D01*
X013240Y017475D01*
X013165Y017550D01*
X013015Y017550D01*
X012940Y017625D01*
X012940Y017701D01*
X013015Y017776D01*
X013165Y017776D01*
X013240Y017701D01*
X013400Y017776D02*
X013625Y017776D01*
X013700Y017701D01*
X013700Y017550D01*
X013625Y017475D01*
X013400Y017475D01*
X013400Y017325D02*
X013400Y017776D01*
X012780Y017701D02*
X012704Y017776D01*
X012554Y017776D01*
X012479Y017701D01*
X016475Y013170D02*
X016565Y013170D01*
X016520Y013170D02*
X016520Y012900D01*
X016475Y012900D02*
X016565Y012900D01*
X016671Y012900D02*
X016671Y013170D01*
X016807Y013170D01*
X016852Y013125D01*
X016852Y013035D01*
X016807Y012990D01*
X016671Y012990D01*
X016762Y012990D02*
X016852Y012900D01*
X016966Y012900D02*
X017101Y012900D01*
X017146Y012945D01*
X017146Y013125D01*
X017101Y013170D01*
X016966Y013170D01*
X016966Y012900D01*
X017261Y012900D02*
X017261Y013080D01*
X017351Y013170D01*
X017441Y013080D01*
X017441Y012900D01*
X017441Y013035D02*
X017261Y013035D01*
X017850Y013080D02*
X017895Y013035D01*
X017985Y013035D01*
X018030Y012990D01*
X018030Y012945D01*
X017985Y012900D01*
X017895Y012900D01*
X017850Y012945D01*
X017850Y013080D02*
X017850Y013125D01*
X017895Y013170D01*
X017985Y013170D01*
X018030Y013125D01*
X018145Y013170D02*
X018145Y012900D01*
X018145Y013035D02*
X018190Y013080D01*
X018280Y013080D01*
X018325Y013035D01*
X018325Y012900D01*
X018439Y012900D02*
X018529Y012900D01*
X018484Y012900D02*
X018484Y013080D01*
X018439Y013080D01*
X018484Y013170D02*
X018484Y013215D01*
X018636Y013035D02*
X018681Y013080D01*
X018771Y013080D01*
X018816Y013035D01*
X018816Y012990D01*
X018636Y012990D01*
X018636Y012945D02*
X018636Y013035D01*
X018636Y012945D02*
X018681Y012900D01*
X018771Y012900D01*
X018930Y012900D02*
X019021Y012900D01*
X018975Y012900D02*
X018975Y013170D01*
X018930Y013170D01*
X019127Y013035D02*
X019172Y013080D01*
X019307Y013080D01*
X019307Y013170D02*
X019307Y012900D01*
X019172Y012900D01*
X019127Y012945D01*
X019127Y013035D01*
X020088Y013950D02*
X020088Y014140D01*
X020025Y014140D02*
X020152Y014140D01*
X020246Y014140D02*
X020309Y014077D01*
X020373Y014140D01*
X020373Y013950D01*
X020246Y013950D02*
X020246Y014140D01*
X021320Y014097D02*
X021437Y014214D01*
X021670Y014214D01*
X021670Y014349D02*
X021670Y014582D01*
X021670Y014466D02*
X021320Y014466D01*
X021437Y014349D01*
X021495Y014214D02*
X021495Y013981D01*
X021437Y013981D02*
X021320Y014097D01*
X021437Y013981D02*
X021670Y013981D01*
X021612Y013582D02*
X021378Y013582D01*
X021612Y013349D01*
X021670Y013407D01*
X021670Y013524D01*
X021612Y013582D01*
X021612Y013349D02*
X021378Y013349D01*
X021320Y013407D01*
X021320Y013524D01*
X021378Y013582D01*
X021437Y013214D02*
X021670Y013214D01*
X021495Y013214D02*
X021495Y012981D01*
X021437Y012981D02*
X021320Y013097D01*
X021437Y013214D01*
X021437Y012981D02*
X021670Y012981D01*
X021670Y014981D02*
X021437Y014981D01*
X021320Y015097D01*
X021437Y015214D01*
X021670Y015214D01*
X021670Y015349D02*
X021437Y015582D01*
X021378Y015582D01*
X021320Y015524D01*
X021320Y015407D01*
X021378Y015349D01*
X021495Y015214D02*
X021495Y014981D01*
X021670Y015349D02*
X021670Y015582D01*
X021670Y015981D02*
X021437Y015981D01*
X021320Y016097D01*
X021437Y016214D01*
X021670Y016214D01*
X021612Y016349D02*
X021670Y016407D01*
X021670Y016524D01*
X021612Y016582D01*
X021553Y016582D01*
X021495Y016524D01*
X021495Y016466D01*
X021495Y016524D02*
X021437Y016582D01*
X021378Y016582D01*
X021320Y016524D01*
X021320Y016407D01*
X021378Y016349D01*
X021495Y016214D02*
X021495Y015981D01*
X021495Y016981D02*
X021495Y017214D01*
X021437Y017214D02*
X021670Y017214D01*
X021495Y017349D02*
X021495Y017582D01*
X021320Y017524D02*
X021495Y017349D01*
X021437Y017214D02*
X021320Y017097D01*
X021437Y016981D01*
X021670Y016981D01*
X021670Y017524D02*
X021320Y017524D01*
X021437Y017981D02*
X021320Y018097D01*
X021437Y018214D01*
X021670Y018214D01*
X021612Y018349D02*
X021670Y018407D01*
X021670Y018524D01*
X021612Y018582D01*
X021495Y018582D01*
X021437Y018524D01*
X021437Y018466D01*
X021495Y018349D01*
X021320Y018349D01*
X021320Y018582D01*
X021495Y018214D02*
X021495Y017981D01*
X021437Y017981D02*
X021670Y017981D01*
D12*
X018808Y014019D02*
X018808Y013940D01*
X018808Y013784D02*
X018808Y013470D01*
X018886Y013470D02*
X018729Y013470D01*
X018527Y013548D02*
X018527Y013705D01*
X018449Y013784D01*
X018292Y013784D01*
X018214Y013705D01*
X018214Y013548D01*
X018292Y013470D01*
X018449Y013470D01*
X018527Y013548D01*
X018729Y013784D02*
X018808Y013784D01*
X019073Y013784D02*
X019308Y013784D01*
X019387Y013705D01*
X019387Y013470D01*
X019589Y013548D02*
X019667Y013470D01*
X019824Y013470D01*
X019902Y013548D01*
X019902Y013705D01*
X019824Y013784D01*
X019667Y013784D01*
X019589Y013705D01*
X019589Y013548D01*
X019073Y013470D02*
X019073Y013784D01*
X018019Y013784D02*
X017941Y013784D01*
X017784Y013627D01*
X017784Y013470D02*
X017784Y013784D01*
X017582Y013784D02*
X017347Y013784D01*
X017268Y013705D01*
X017268Y013548D01*
X017347Y013470D01*
X017582Y013470D01*
X017582Y013940D01*
X017074Y013784D02*
X016996Y013784D01*
X016839Y013627D01*
X016839Y013470D02*
X016839Y013784D01*
X016652Y013940D02*
X016495Y013940D01*
X016573Y013940D02*
X016573Y013470D01*
X016495Y013470D02*
X016652Y013470D01*
D13*
X004462Y013500D02*
X004135Y013500D01*
X004135Y013255D01*
X004298Y013337D01*
X004380Y013337D01*
X004462Y013255D01*
X004462Y013092D01*
X004380Y013010D01*
X004217Y013010D01*
X004135Y013092D01*
X004462Y012500D02*
X004298Y012419D01*
X004135Y012255D01*
X004380Y012255D01*
X004462Y012173D01*
X004462Y012092D01*
X004380Y012010D01*
X004217Y012010D01*
X004135Y012092D01*
X004135Y012255D01*
X004135Y011500D02*
X004462Y011500D01*
X004462Y011419D01*
X004135Y011092D01*
X004135Y011010D01*
X004380Y014010D02*
X004380Y014500D01*
X004135Y014255D01*
X004462Y014255D01*
X004380Y015010D02*
X004217Y015010D01*
X004135Y015092D01*
X004298Y015255D02*
X004380Y015255D01*
X004462Y015173D01*
X004462Y015092D01*
X004380Y015010D01*
X004380Y015255D02*
X004462Y015337D01*
X004462Y015419D01*
X004380Y015500D01*
X004217Y015500D01*
X004135Y015419D01*
X004135Y016010D02*
X004462Y016337D01*
X004462Y016419D01*
X004380Y016500D01*
X004217Y016500D01*
X004135Y016419D01*
X004135Y016010D02*
X004462Y016010D01*
X004462Y017010D02*
X004135Y017010D01*
X004298Y017010D02*
X004298Y017500D01*
X004135Y017337D01*
X004217Y018010D02*
X004135Y018092D01*
X004462Y018419D01*
X004462Y018092D01*
X004380Y018010D01*
X004217Y018010D01*
X004135Y018092D02*
X004135Y018419D01*
X004217Y018500D01*
X004380Y018500D01*
X004462Y018419D01*
D14*
X003900Y018525D02*
X003900Y018025D01*
X003650Y017775D01*
X003900Y017525D01*
X003900Y017025D01*
X003650Y016775D01*
X003150Y016775D01*
X002900Y017025D01*
X002900Y017525D01*
X003150Y017775D01*
X002900Y018025D01*
X002900Y018525D01*
X003150Y018775D01*
X003650Y018775D01*
X003900Y018525D01*
X003650Y017775D02*
X003150Y017775D01*
X003150Y016775D02*
X002900Y016525D01*
X002900Y016025D01*
X003150Y015775D01*
X002900Y015525D01*
X002900Y015025D01*
X003150Y014775D01*
X002900Y014525D01*
X002900Y014025D01*
X003150Y013775D01*
X003650Y013775D01*
X003900Y014025D01*
X003900Y014525D01*
X003650Y014775D01*
X003150Y014775D01*
X003650Y014775D02*
X003900Y015025D01*
X003900Y015525D01*
X003650Y015775D01*
X003150Y015775D01*
X003650Y015775D02*
X003900Y016025D01*
X003900Y016525D01*
X003650Y016775D01*
X003650Y013775D02*
X003900Y013525D01*
X003900Y013025D01*
X003650Y012775D01*
X003900Y012525D01*
X003900Y012025D01*
X003650Y011775D01*
X003900Y011525D01*
X003900Y011025D01*
X003650Y010775D01*
X003150Y010775D01*
X002900Y011025D01*
X002900Y011525D01*
X003150Y011775D01*
X002900Y012025D01*
X002900Y012525D01*
X003150Y012775D01*
X002900Y013025D01*
X002900Y013525D01*
X003150Y013775D01*
X003150Y012775D02*
X003650Y012775D01*
X003650Y011775D02*
X003150Y011775D01*
X010900Y018075D02*
X010900Y019575D01*
X011150Y019825D01*
X011650Y019825D01*
X011900Y019575D01*
X011900Y018075D01*
X012150Y017825D01*
X012650Y017825D01*
X012900Y018075D01*
X013150Y017825D01*
X013650Y017825D01*
X013900Y018075D01*
X013900Y019575D01*
X013650Y019825D01*
X013150Y019825D01*
X012900Y019575D01*
X012900Y018075D01*
X011900Y018075D02*
X011650Y017825D01*
X011150Y017825D01*
X010900Y018075D01*
X011900Y019575D02*
X012150Y019825D01*
X012650Y019825D01*
X012900Y019575D01*
X021900Y018525D02*
X021900Y018025D01*
X022150Y017775D01*
X022650Y017775D01*
X022900Y018025D01*
X022900Y018525D01*
X022650Y018775D01*
X022150Y018775D01*
X021900Y018525D01*
X022150Y017775D02*
X021900Y017525D01*
X021900Y017025D01*
X022150Y016775D01*
X022650Y016775D01*
X022900Y017025D01*
X022900Y017525D01*
X022650Y017775D01*
X022650Y016775D02*
X022900Y016525D01*
X022900Y016025D01*
X022650Y015775D01*
X022900Y015525D01*
X022900Y015025D01*
X022650Y014775D01*
X022900Y014525D01*
X022900Y014025D01*
X022650Y013775D01*
X022900Y013525D01*
X022900Y013025D01*
X022650Y012775D01*
X022150Y012775D01*
X021900Y013025D01*
X021900Y013525D01*
X022150Y013775D01*
X021900Y014025D01*
X021900Y014525D01*
X022150Y014775D01*
X022650Y014775D01*
X022150Y014775D02*
X021900Y015025D01*
X021900Y015525D01*
X022150Y015775D01*
X021900Y016025D01*
X021900Y016525D01*
X022150Y016775D01*
X022150Y015775D02*
X022650Y015775D01*
X022650Y013775D02*
X022150Y013775D01*
D15*
X022400Y014275D03*
X022400Y013275D03*
X022400Y015275D03*
X022400Y016275D03*
X022400Y017275D03*
X022400Y018275D03*
X013400Y018325D03*
X012400Y018325D03*
X011400Y018325D03*
X011400Y019325D03*
X012400Y019325D03*
X013400Y019325D03*
X003400Y018275D03*
X003400Y017275D03*
X003400Y016275D03*
X003400Y015275D03*
X003400Y014275D03*
X003400Y013275D03*
X003400Y012275D03*
X003400Y011275D03*
D16*
X014771Y012912D03*
X015271Y012752D03*
D17*
X015291Y012762D03*
X015331Y013852D03*
D18*
X015281Y012772D03*
D19*
X015286Y012782D03*
D20*
X015281Y012792D03*
D21*
X015286Y012802D03*
D22*
X015281Y012812D03*
D23*
X015291Y012822D03*
X015291Y013702D03*
D24*
X015291Y012832D03*
D25*
X015291Y012842D03*
D26*
X015286Y012852D03*
D27*
X015286Y012862D03*
D28*
X015291Y012872D03*
D29*
X015291Y012882D03*
D30*
X015291Y012892D03*
D31*
X014881Y012902D03*
D32*
X015696Y012902D03*
X015326Y013952D03*
D33*
X015341Y014022D03*
X015821Y013632D03*
X015801Y012912D03*
X014811Y013642D03*
D34*
X014746Y013622D03*
X014736Y012922D03*
X015856Y012932D03*
D35*
X015841Y012922D03*
X015851Y013622D03*
X015311Y014032D03*
X014771Y013632D03*
D36*
X014721Y012932D03*
X015881Y013612D03*
D37*
X015911Y013592D03*
X015341Y013912D03*
X014721Y013612D03*
X014701Y012942D03*
X015891Y012952D03*
D38*
X015871Y012942D03*
X015901Y013602D03*
D39*
X015931Y013572D03*
X015941Y013562D03*
X015331Y014042D03*
X014681Y012962D03*
X014691Y012952D03*
D40*
X014706Y013602D03*
X015336Y013882D03*
X015336Y013892D03*
X015336Y013902D03*
X015926Y013582D03*
X015896Y012962D03*
D41*
X015921Y012992D03*
X015951Y013552D03*
X014681Y013582D03*
X014671Y012972D03*
D42*
X014696Y013592D03*
X015906Y012972D03*
X015916Y012982D03*
D43*
X015926Y013002D03*
X015936Y013012D03*
X015936Y013022D03*
X015966Y013512D03*
X015966Y013522D03*
X015956Y013532D03*
X015956Y013542D03*
X014676Y013572D03*
X014666Y012982D03*
D44*
X014661Y012992D03*
X014661Y013562D03*
X015621Y013802D03*
X015971Y013502D03*
X015971Y013492D03*
X015941Y013032D03*
D45*
X015946Y013042D03*
X015946Y013052D03*
X015946Y013062D03*
X015956Y013082D03*
X015956Y013092D03*
X015976Y013432D03*
X015976Y013442D03*
X015976Y013452D03*
X015976Y013462D03*
X015976Y013472D03*
X015976Y013482D03*
X014656Y013542D03*
X014656Y013552D03*
X014646Y013022D03*
X014656Y013012D03*
X014656Y013002D03*
D46*
X014641Y013032D03*
X014641Y013042D03*
X014641Y013052D03*
X014631Y013092D03*
X014651Y013532D03*
X015051Y013862D03*
X015981Y013422D03*
X015981Y013412D03*
X015981Y013402D03*
X015981Y013392D03*
X015981Y013382D03*
X015981Y013372D03*
X015981Y013362D03*
X015981Y013352D03*
X015981Y013342D03*
X015981Y013332D03*
X015981Y013322D03*
X015981Y013312D03*
X015981Y013302D03*
X015981Y013292D03*
X015971Y013262D03*
X015971Y013252D03*
X015971Y013242D03*
X015971Y013232D03*
X015971Y013222D03*
X015971Y013212D03*
X015971Y013202D03*
X015971Y013192D03*
X015971Y013182D03*
X015971Y013172D03*
X015961Y013142D03*
X015961Y013132D03*
X015961Y013122D03*
X015961Y013112D03*
X015961Y013102D03*
X015951Y013072D03*
D47*
X015966Y013152D03*
X015966Y013162D03*
X015976Y013272D03*
X015976Y013282D03*
X014646Y013522D03*
X014636Y013512D03*
X014636Y013502D03*
X014626Y013472D03*
X014626Y013142D03*
X014626Y013132D03*
X014626Y013122D03*
X014626Y013112D03*
X014626Y013102D03*
X014636Y013082D03*
X014636Y013072D03*
X014636Y013062D03*
D48*
X014621Y013152D03*
X014621Y013162D03*
X014621Y013172D03*
X014621Y013182D03*
X014621Y013192D03*
X014621Y013202D03*
X014621Y013212D03*
X014621Y013222D03*
X014621Y013232D03*
X014621Y013242D03*
X014621Y013252D03*
X014621Y013262D03*
X014621Y013272D03*
X014621Y013282D03*
X014621Y013402D03*
X014621Y013412D03*
X014621Y013422D03*
X014621Y013432D03*
X014621Y013442D03*
X014621Y013452D03*
X014621Y013462D03*
X014631Y013482D03*
X014631Y013492D03*
D49*
X014616Y013392D03*
X014616Y013382D03*
X014616Y013372D03*
X014616Y013362D03*
X014616Y013352D03*
X014616Y013342D03*
X014616Y013332D03*
X014616Y013322D03*
X014616Y013312D03*
X014616Y013302D03*
X014616Y013292D03*
X015046Y013872D03*
X015626Y013862D03*
D50*
X015421Y013932D03*
X015781Y013642D03*
D51*
X015306Y013652D03*
D52*
X015306Y013662D03*
D53*
X015301Y013672D03*
D54*
X015296Y013682D03*
D55*
X015296Y013692D03*
D56*
X015286Y013712D03*
D57*
X015281Y013722D03*
D58*
X015266Y013732D03*
D59*
X015246Y013742D03*
D60*
X015221Y013752D03*
D61*
X015201Y013762D03*
D62*
X015706Y013792D03*
D63*
X015336Y013812D03*
D64*
X015331Y013822D03*
D65*
X015331Y013832D03*
X015331Y013842D03*
D66*
X015326Y013862D03*
D67*
X015336Y013872D03*
X015346Y013922D03*
D68*
X015626Y013882D03*
X015626Y013872D03*
X015046Y013892D03*
D69*
X015041Y013882D03*
X015331Y014052D03*
D70*
X015071Y013932D03*
X015061Y013922D03*
X015051Y013912D03*
X015051Y013902D03*
X015621Y013892D03*
D71*
X015616Y013902D03*
X015616Y013912D03*
X015606Y013922D03*
D72*
X015331Y013942D03*
D73*
X015326Y013962D03*
D74*
X015331Y013972D03*
D75*
X015331Y013982D03*
D76*
X015331Y013992D03*
D77*
X015326Y014002D03*
D78*
X015336Y014012D03*
D79*
X015536Y014032D03*
X015576Y014082D03*
X015596Y014112D03*
X015136Y014052D03*
X015126Y014072D03*
X015106Y014102D03*
X015096Y014112D03*
X015086Y014132D03*
D80*
X015091Y014122D03*
X015111Y014092D03*
X015121Y014082D03*
X015131Y014062D03*
X015141Y014042D03*
X015541Y014042D03*
X015551Y014052D03*
X015561Y014062D03*
X015571Y014072D03*
X015581Y014092D03*
X015591Y014102D03*
D81*
X015601Y014122D03*
D82*
X007900Y014025D03*
X007900Y013525D03*
X007900Y013025D03*
X006050Y013025D03*
X006050Y013525D03*
X006050Y014025D03*
X006050Y014525D03*
X006050Y015025D03*
X006050Y015525D03*
X006050Y016025D03*
X007900Y016025D03*
X007900Y015525D03*
X007900Y015025D03*
X007900Y014525D03*
D83*
X007836Y012150D02*
X007993Y012150D01*
X007993Y011756D01*
X007836Y011756D02*
X007836Y012150D01*
X007403Y012150D02*
X007403Y011756D01*
X007245Y011756D02*
X007245Y012150D01*
X007403Y012150D01*
X007591Y011382D02*
X007591Y011225D01*
X007433Y011225D01*
X007591Y011225D02*
X007748Y011225D01*
X007591Y011225D02*
X007591Y011068D01*
X008339Y010871D02*
X008575Y010871D01*
X008575Y010694D01*
X008339Y010694D01*
X008339Y011579D02*
X008575Y011579D01*
X008575Y011756D01*
X008339Y011756D01*
X006567Y011225D02*
X006409Y011225D01*
X006252Y011225D01*
X006409Y011225D02*
X006409Y011068D01*
X006409Y011225D02*
X006409Y011382D01*
X006222Y011756D02*
X006222Y012150D01*
X006064Y012150D01*
X006064Y011756D01*
X005681Y011756D02*
X005425Y011756D01*
X005425Y011579D01*
X005681Y011579D01*
X005661Y010871D02*
X005425Y010871D01*
X005425Y010694D01*
X005661Y010694D01*
D84*
X006429Y010103D02*
X006941Y010103D01*
X006941Y010694D01*
X006429Y010694D02*
X006429Y010103D01*
D85*
X007020Y010103D02*
X007020Y010694D01*
X007531Y010694D02*
X007531Y010103D01*
X007020Y010103D01*
D86*
X007434Y011225D02*
X007436Y011250D01*
X007442Y011274D01*
X007451Y011296D01*
X007464Y011317D01*
X007480Y011336D01*
X007499Y011352D01*
X007520Y011365D01*
X007542Y011374D01*
X007566Y011380D01*
X007591Y011382D01*
X007616Y011380D01*
X007640Y011374D01*
X007662Y011365D01*
X007683Y011352D01*
X007702Y011336D01*
X007718Y011317D01*
X007731Y011296D01*
X007740Y011274D01*
X007746Y011250D01*
X007748Y011225D01*
X007746Y011200D01*
X007740Y011176D01*
X007731Y011154D01*
X007718Y011133D01*
X007702Y011114D01*
X007683Y011098D01*
X007662Y011085D01*
X007640Y011076D01*
X007616Y011070D01*
X007591Y011068D01*
X007566Y011070D01*
X007542Y011076D01*
X007520Y011085D01*
X007499Y011098D01*
X007480Y011114D01*
X007464Y011133D01*
X007451Y011154D01*
X007442Y011176D01*
X007436Y011200D01*
X007434Y011225D01*
X006252Y011225D02*
X006254Y011250D01*
X006260Y011274D01*
X006269Y011296D01*
X006282Y011317D01*
X006298Y011336D01*
X006317Y011352D01*
X006338Y011365D01*
X006360Y011374D01*
X006384Y011380D01*
X006409Y011382D01*
X006434Y011380D01*
X006458Y011374D01*
X006480Y011365D01*
X006501Y011352D01*
X006520Y011336D01*
X006536Y011317D01*
X006549Y011296D01*
X006558Y011274D01*
X006564Y011250D01*
X006566Y011225D01*
X006564Y011200D01*
X006558Y011176D01*
X006549Y011154D01*
X006536Y011133D01*
X006520Y011114D01*
X006501Y011098D01*
X006480Y011085D01*
X006458Y011076D01*
X006434Y011070D01*
X006409Y011068D01*
X006384Y011070D01*
X006360Y011076D01*
X006338Y011085D01*
X006317Y011098D01*
X006298Y011114D01*
X006282Y011133D01*
X006269Y011154D01*
X006260Y011176D01*
X006254Y011200D01*
X006252Y011225D01*
D87*
X006071Y010986D02*
X006071Y010836D01*
X006021Y010886D01*
X005971Y010836D01*
X005971Y010986D01*
X005924Y010961D02*
X005899Y010986D01*
X005849Y010986D01*
X005824Y010961D01*
X005824Y010936D01*
X005849Y010911D01*
X005899Y010911D01*
X005924Y010886D01*
X005924Y010861D01*
X005899Y010836D01*
X005849Y010836D01*
X005824Y010861D01*
D88*
X016160Y018053D02*
X016121Y018761D01*
X016475Y018761D01*
X019625Y018761D01*
X019979Y018761D01*
X019940Y018053D01*
X019625Y018053D01*
X016475Y018053D01*
X016160Y018053D01*
X016121Y018761D02*
X016121Y019194D01*
X019979Y019194D01*
X019979Y018761D01*
X019653Y017915D02*
X019653Y017454D01*
X019806Y017454D02*
X019499Y017454D01*
X019346Y017454D02*
X019192Y017608D01*
X019269Y017608D02*
X019039Y017608D01*
X019039Y017454D02*
X019039Y017915D01*
X019269Y017915D01*
X019346Y017838D01*
X019346Y017685D01*
X019269Y017608D01*
X019499Y017761D02*
X019653Y017915D01*
X018886Y017915D02*
X018579Y017454D01*
X018886Y017454D02*
X018579Y017915D01*
X018483Y019194D02*
X018485Y019244D01*
X018490Y019294D01*
X018500Y019343D01*
X018513Y019391D01*
X018529Y019438D01*
X018549Y019484D01*
X018573Y019529D01*
X018599Y019571D01*
X018629Y019611D01*
X018662Y019649D01*
X018697Y019684D01*
X018735Y019717D01*
X018775Y019747D01*
X018818Y019773D01*
X018862Y019797D01*
X018908Y019817D01*
X018955Y019833D01*
X019003Y019846D01*
X019052Y019856D01*
X019102Y019861D01*
X019152Y019863D01*
X019202Y019861D01*
X019252Y019856D01*
X019301Y019846D01*
X019349Y019833D01*
X019396Y019817D01*
X019442Y019797D01*
X019487Y019773D01*
X019529Y019747D01*
X019569Y019717D01*
X019607Y019684D01*
X019642Y019649D01*
X019675Y019611D01*
X019705Y019571D01*
X019731Y019529D01*
X019755Y019484D01*
X019775Y019438D01*
X019791Y019391D01*
X019804Y019343D01*
X019814Y019294D01*
X019819Y019244D01*
X019821Y019194D01*
X017499Y019194D02*
X017497Y019244D01*
X017492Y019294D01*
X017482Y019343D01*
X017469Y019391D01*
X017453Y019438D01*
X017433Y019484D01*
X017409Y019529D01*
X017383Y019571D01*
X017353Y019611D01*
X017320Y019649D01*
X017285Y019684D01*
X017247Y019717D01*
X017207Y019747D01*
X017165Y019773D01*
X017120Y019797D01*
X017074Y019817D01*
X017027Y019833D01*
X016979Y019846D01*
X016930Y019856D01*
X016880Y019861D01*
X016830Y019863D01*
X016780Y019861D01*
X016730Y019856D01*
X016681Y019846D01*
X016633Y019833D01*
X016586Y019817D01*
X016540Y019797D01*
X016496Y019773D01*
X016453Y019747D01*
X016413Y019717D01*
X016375Y019684D01*
X016340Y019649D01*
X016307Y019611D01*
X016277Y019571D01*
X016251Y019529D01*
X016227Y019484D01*
X016207Y019438D01*
X016191Y019391D01*
X016178Y019343D01*
X016168Y019294D01*
X016163Y019244D01*
X016161Y019194D01*
M02*
