G75*
%MOIN*%
%OFA0B0*%
%FSLAX24Y24*%
%IPPOS*%
%LPD*%
%AMOC8*
5,1,8,0,0,1.08239X$1,22.5*
%
%ADD10OC8,0.0610*%
%ADD11C,0.0560*%
%ADD12C,0.0076*%
%ADD13C,0.0039*%
%ADD14C,0.0160*%
%ADD15R,0.0436X0.0436*%
D10*
X011400Y018325D03*
X012400Y018325D03*
X013400Y018325D03*
X013400Y019325D03*
X012400Y019325D03*
X011400Y019325D03*
D11*
X003540Y018275D02*
X003260Y018275D01*
X003260Y017275D02*
X003540Y017275D01*
X003540Y016275D02*
X003260Y016275D01*
X003260Y015275D02*
X003540Y015275D01*
X003540Y014275D02*
X003260Y014275D01*
X003260Y013275D02*
X003540Y013275D01*
X003540Y012275D02*
X003260Y012275D01*
X003260Y011275D02*
X003540Y011275D01*
X022260Y013275D02*
X022540Y013275D01*
X022540Y014275D02*
X022260Y014275D01*
X022260Y015275D02*
X022540Y015275D01*
X022540Y016275D02*
X022260Y016275D01*
X022260Y017275D02*
X022540Y017275D01*
X022540Y018275D02*
X022260Y018275D01*
D12*
X010242Y017237D02*
X010242Y015213D01*
X009558Y015213D01*
X009558Y017237D01*
X010242Y017237D01*
X010242Y015288D02*
X009558Y015288D01*
X009558Y015363D02*
X010242Y015363D01*
X010242Y015438D02*
X009558Y015438D01*
X009558Y015513D02*
X010242Y015513D01*
X010242Y015588D02*
X009558Y015588D01*
X009558Y015663D02*
X010242Y015663D01*
X010242Y015738D02*
X009558Y015738D01*
X009558Y015813D02*
X010242Y015813D01*
X010242Y015888D02*
X009558Y015888D01*
X009558Y015963D02*
X010242Y015963D01*
X010242Y016038D02*
X009558Y016038D01*
X009558Y016113D02*
X010242Y016113D01*
X010242Y016188D02*
X009558Y016188D01*
X009558Y016263D02*
X010242Y016263D01*
X010242Y016338D02*
X009558Y016338D01*
X009558Y016413D02*
X010242Y016413D01*
X010242Y016488D02*
X009558Y016488D01*
X009558Y016563D02*
X010242Y016563D01*
X010242Y016638D02*
X009558Y016638D01*
X009558Y016713D02*
X010242Y016713D01*
X010242Y016788D02*
X009558Y016788D01*
X009558Y016863D02*
X010242Y016863D01*
X010242Y016938D02*
X009558Y016938D01*
X009558Y017013D02*
X010242Y017013D01*
X010242Y017088D02*
X009558Y017088D01*
X009558Y017163D02*
X010242Y017163D01*
X010242Y013437D02*
X010242Y011413D01*
X009558Y011413D01*
X009558Y013437D01*
X010242Y013437D01*
X010242Y011488D02*
X009558Y011488D01*
X009558Y011563D02*
X010242Y011563D01*
X010242Y011638D02*
X009558Y011638D01*
X009558Y011713D02*
X010242Y011713D01*
X010242Y011788D02*
X009558Y011788D01*
X009558Y011863D02*
X010242Y011863D01*
X010242Y011938D02*
X009558Y011938D01*
X009558Y012013D02*
X010242Y012013D01*
X010242Y012088D02*
X009558Y012088D01*
X009558Y012163D02*
X010242Y012163D01*
X010242Y012238D02*
X009558Y012238D01*
X009558Y012313D02*
X010242Y012313D01*
X010242Y012388D02*
X009558Y012388D01*
X009558Y012463D02*
X010242Y012463D01*
X010242Y012538D02*
X009558Y012538D01*
X009558Y012613D02*
X010242Y012613D01*
X010242Y012688D02*
X009558Y012688D01*
X009558Y012763D02*
X010242Y012763D01*
X010242Y012838D02*
X009558Y012838D01*
X009558Y012913D02*
X010242Y012913D01*
X010242Y012988D02*
X009558Y012988D01*
X009558Y013063D02*
X010242Y013063D01*
X010242Y013138D02*
X009558Y013138D01*
X009558Y013213D02*
X010242Y013213D01*
X010242Y013288D02*
X009558Y013288D01*
X009558Y013363D02*
X010242Y013363D01*
D13*
X011068Y013947D02*
X011462Y013947D01*
X011068Y013947D02*
X011068Y014303D01*
X011462Y014303D01*
X011462Y013947D01*
X011462Y013985D02*
X011068Y013985D01*
X011068Y014023D02*
X011462Y014023D01*
X011462Y014061D02*
X011068Y014061D01*
X011068Y014099D02*
X011462Y014099D01*
X011462Y014137D02*
X011068Y014137D01*
X011068Y014175D02*
X011462Y014175D01*
X011462Y014213D02*
X011068Y014213D01*
X011068Y014251D02*
X011462Y014251D01*
X011462Y014289D02*
X011068Y014289D01*
X011738Y013947D02*
X012132Y013947D01*
X011738Y013947D02*
X011738Y014303D01*
X012132Y014303D01*
X012132Y013947D01*
X012132Y013985D02*
X011738Y013985D01*
X011738Y014023D02*
X012132Y014023D01*
X012132Y014061D02*
X011738Y014061D01*
X011738Y014099D02*
X012132Y014099D01*
X012132Y014137D02*
X011738Y014137D01*
X011738Y014175D02*
X012132Y014175D01*
X012132Y014213D02*
X011738Y014213D01*
X011738Y014251D02*
X012132Y014251D01*
X012132Y014289D02*
X011738Y014289D01*
X011738Y016247D02*
X012132Y016247D01*
X011738Y016247D02*
X011738Y016603D01*
X012132Y016603D01*
X012132Y016247D01*
X012132Y016285D02*
X011738Y016285D01*
X011738Y016323D02*
X012132Y016323D01*
X012132Y016361D02*
X011738Y016361D01*
X011738Y016399D02*
X012132Y016399D01*
X012132Y016437D02*
X011738Y016437D01*
X011738Y016475D02*
X012132Y016475D01*
X012132Y016513D02*
X011738Y016513D01*
X011738Y016551D02*
X012132Y016551D01*
X012132Y016589D02*
X011738Y016589D01*
X011462Y016247D02*
X011068Y016247D01*
X011068Y016603D01*
X011462Y016603D01*
X011462Y016247D01*
X011462Y016285D02*
X011068Y016285D01*
X011068Y016323D02*
X011462Y016323D01*
X011462Y016361D02*
X011068Y016361D01*
X011068Y016399D02*
X011462Y016399D01*
X011462Y016437D02*
X011068Y016437D01*
X011068Y016475D02*
X011462Y016475D01*
X011462Y016513D02*
X011068Y016513D01*
X011068Y016551D02*
X011462Y016551D01*
X011462Y016589D02*
X011068Y016589D01*
D14*
X002781Y010606D02*
X002758Y010616D01*
X002741Y010633D01*
X002731Y010656D01*
X002730Y010669D01*
X002730Y018538D01*
X004137Y019945D01*
X021263Y019945D01*
X022120Y019088D01*
X022213Y018995D01*
X022334Y018945D01*
X023006Y018945D01*
X023019Y018944D01*
X023042Y018934D01*
X023059Y018917D01*
X023069Y018894D01*
X023070Y018881D01*
X023070Y012669D01*
X023069Y012656D01*
X023059Y012633D01*
X023042Y012616D01*
X023019Y012606D01*
X023006Y012605D01*
X011984Y012605D01*
X011863Y012555D01*
X011770Y012462D01*
X009913Y010605D01*
X002794Y010605D01*
X002781Y010606D01*
X002747Y010628D02*
X009936Y010628D01*
X010094Y010786D02*
X002730Y010786D01*
X002730Y010945D02*
X002940Y010945D01*
X002999Y010885D02*
X003168Y010815D01*
X003631Y010815D01*
X003801Y010885D01*
X003930Y011014D01*
X004000Y011183D01*
X004000Y011366D01*
X003930Y011536D01*
X003801Y011665D01*
X003631Y011735D01*
X003168Y011735D01*
X002999Y011665D01*
X002870Y011536D01*
X002800Y011366D01*
X002800Y011183D01*
X002870Y011014D01*
X002999Y010885D01*
X002833Y011103D02*
X002730Y011103D01*
X002730Y011262D02*
X002800Y011262D01*
X002822Y011420D02*
X002730Y011420D01*
X002730Y011579D02*
X002913Y011579D01*
X002730Y011737D02*
X009340Y011737D01*
X009340Y011579D02*
X007856Y011579D01*
X007838Y011596D02*
X007678Y011662D01*
X007504Y011662D01*
X007343Y011596D01*
X007220Y011473D01*
X007153Y011312D01*
X007153Y011138D01*
X007220Y010977D01*
X007343Y010854D01*
X007504Y010788D01*
X007678Y010788D01*
X007838Y010854D01*
X007961Y010977D01*
X008028Y011138D01*
X008028Y011312D01*
X007961Y011473D01*
X007838Y011596D01*
X007983Y011420D02*
X009340Y011420D01*
X009340Y011323D02*
X009468Y011195D01*
X010332Y011195D01*
X010460Y011323D01*
X010460Y012952D01*
X011256Y013748D01*
X011545Y013748D01*
X011600Y013803D01*
X011615Y013788D01*
X011661Y013762D01*
X011712Y013748D01*
X011916Y013748D01*
X011916Y014107D01*
X011953Y014107D01*
X011953Y014143D01*
X012331Y014143D01*
X012331Y014328D01*
X012318Y014379D01*
X012291Y014425D01*
X012254Y014462D01*
X012209Y014488D01*
X012158Y014502D01*
X011953Y014502D01*
X011953Y014143D01*
X011916Y014143D01*
X011916Y014502D01*
X011712Y014502D01*
X011661Y014488D01*
X011615Y014462D01*
X011600Y014447D01*
X011545Y014502D01*
X010986Y014502D01*
X010869Y014385D01*
X010869Y014096D01*
X010380Y013607D01*
X010332Y013655D01*
X009468Y013655D01*
X009360Y013547D01*
X009360Y013627D01*
X009393Y013627D01*
X009498Y013732D01*
X009498Y014318D01*
X009393Y014423D01*
X008807Y014423D01*
X008702Y014318D01*
X008702Y013732D01*
X008807Y013627D01*
X008840Y013627D01*
X008840Y012673D01*
X008880Y012578D01*
X008953Y012505D01*
X009253Y012205D01*
X009340Y012168D01*
X009340Y011323D01*
X009401Y011262D02*
X008028Y011262D01*
X008014Y011103D02*
X010411Y011103D01*
X010399Y011262D02*
X010570Y011262D01*
X010460Y011420D02*
X010728Y011420D01*
X010887Y011579D02*
X010460Y011579D01*
X010460Y011737D02*
X011045Y011737D01*
X011204Y011896D02*
X010460Y011896D01*
X010460Y012054D02*
X011362Y012054D01*
X011521Y012213D02*
X010460Y012213D01*
X010460Y012371D02*
X011679Y012371D01*
X011838Y012530D02*
X010460Y012530D01*
X010460Y012688D02*
X023070Y012688D01*
X023070Y012847D02*
X022708Y012847D01*
X022631Y012815D02*
X022801Y012885D01*
X022930Y013014D01*
X023000Y013183D01*
X023000Y013366D01*
X022930Y013536D01*
X022801Y013665D01*
X022631Y013735D01*
X022168Y013735D01*
X021999Y013665D01*
X021870Y013536D01*
X021800Y013366D01*
X021800Y013183D01*
X021870Y013014D01*
X021999Y012885D01*
X022168Y012815D01*
X022631Y012815D01*
X022921Y013005D02*
X023070Y013005D01*
X023070Y013164D02*
X022992Y013164D01*
X023000Y013322D02*
X023070Y013322D01*
X023070Y013481D02*
X022953Y013481D01*
X023070Y013639D02*
X022827Y013639D01*
X022801Y013885D02*
X022631Y013815D01*
X022168Y013815D01*
X021999Y013885D01*
X021870Y014014D01*
X021800Y014183D01*
X021800Y014366D01*
X021870Y014536D01*
X021999Y014665D01*
X022168Y014735D01*
X022631Y014735D01*
X022801Y014665D01*
X022930Y014536D01*
X023000Y014366D01*
X023000Y014183D01*
X022930Y014014D01*
X022801Y013885D01*
X022872Y013956D02*
X023070Y013956D01*
X023070Y013798D02*
X012264Y013798D01*
X012254Y013788D02*
X012291Y013825D01*
X012318Y013871D01*
X012331Y013922D01*
X012331Y014107D01*
X011953Y014107D01*
X011953Y013748D01*
X012158Y013748D01*
X012209Y013762D01*
X012254Y013788D01*
X012331Y013956D02*
X021928Y013956D01*
X021829Y014115D02*
X011953Y014115D01*
X011953Y014273D02*
X011916Y014273D01*
X011916Y014432D02*
X011953Y014432D01*
X012285Y014432D02*
X021827Y014432D01*
X021800Y014273D02*
X012331Y014273D01*
X011953Y013956D02*
X011916Y013956D01*
X011916Y013798D02*
X011953Y013798D01*
X011606Y013798D02*
X011594Y013798D01*
X011147Y013639D02*
X021973Y013639D01*
X021847Y013481D02*
X010989Y013481D01*
X010830Y013322D02*
X021800Y013322D01*
X021808Y013164D02*
X010672Y013164D01*
X010513Y013005D02*
X021879Y013005D01*
X022092Y012847D02*
X010460Y012847D01*
X009900Y012760D02*
X009900Y012425D01*
X009400Y012425D01*
X009100Y012725D01*
X009100Y014025D01*
X009498Y013956D02*
X010729Y013956D01*
X010869Y014115D02*
X009498Y014115D01*
X009498Y014273D02*
X010869Y014273D01*
X010915Y014432D02*
X007760Y014432D01*
X007760Y014590D02*
X021924Y014590D01*
X021999Y014885D02*
X022168Y014815D01*
X022631Y014815D01*
X022801Y014885D01*
X022930Y015014D01*
X023000Y015183D01*
X023000Y015366D01*
X022930Y015536D01*
X022801Y015665D01*
X022631Y015735D01*
X022168Y015735D01*
X021999Y015665D01*
X021870Y015536D01*
X021800Y015366D01*
X021800Y015183D01*
X021870Y015014D01*
X021999Y014885D01*
X021977Y014907D02*
X007760Y014907D01*
X007760Y014749D02*
X023070Y014749D01*
X023070Y014907D02*
X022823Y014907D01*
X022951Y015066D02*
X023070Y015066D01*
X023070Y015224D02*
X023000Y015224D01*
X022993Y015383D02*
X023070Y015383D01*
X023070Y015541D02*
X022925Y015541D01*
X023070Y015700D02*
X022717Y015700D01*
X022631Y015815D02*
X022801Y015885D01*
X022930Y016014D01*
X023000Y016183D01*
X023000Y016366D01*
X022930Y016536D01*
X022801Y016665D01*
X022631Y016735D01*
X022168Y016735D01*
X021999Y016665D01*
X021870Y016536D01*
X021800Y016366D01*
X021800Y016183D01*
X021870Y016014D01*
X021999Y015885D01*
X022168Y015815D01*
X022631Y015815D01*
X022735Y015858D02*
X023070Y015858D01*
X023070Y016017D02*
X022931Y016017D01*
X022996Y016175D02*
X023070Y016175D01*
X023070Y016334D02*
X023000Y016334D01*
X022948Y016492D02*
X023070Y016492D01*
X023070Y016651D02*
X022815Y016651D01*
X022801Y016885D02*
X022631Y016815D01*
X022168Y016815D01*
X021999Y016885D01*
X021870Y017014D01*
X021800Y017183D01*
X021800Y017366D01*
X021870Y017536D01*
X021999Y017665D01*
X022168Y017735D01*
X022631Y017735D01*
X022801Y017665D01*
X022930Y017536D01*
X023000Y017366D01*
X023000Y017183D01*
X022930Y017014D01*
X022801Y016885D01*
X022883Y016968D02*
X023070Y016968D01*
X023070Y017126D02*
X022976Y017126D01*
X023000Y017285D02*
X023070Y017285D01*
X023070Y017443D02*
X022968Y017443D01*
X023070Y017602D02*
X022864Y017602D01*
X023070Y017760D02*
X002730Y017760D01*
X002730Y017602D02*
X002936Y017602D01*
X002999Y017665D02*
X002870Y017536D01*
X002800Y017366D01*
X002800Y017183D01*
X002870Y017014D01*
X002999Y016885D01*
X003168Y016815D01*
X003631Y016815D01*
X003801Y016885D01*
X003930Y017014D01*
X004000Y017183D01*
X004000Y017366D01*
X003930Y017536D01*
X003801Y017665D01*
X003631Y017735D01*
X003168Y017735D01*
X002999Y017665D01*
X002999Y017885D02*
X003168Y017815D01*
X003631Y017815D01*
X003801Y017885D01*
X003930Y018014D01*
X004000Y018183D01*
X004000Y018366D01*
X003930Y018536D01*
X003801Y018665D01*
X003631Y018735D01*
X003168Y018735D01*
X002999Y018665D01*
X002870Y018536D01*
X002800Y018366D01*
X002800Y018183D01*
X002870Y018014D01*
X002999Y017885D01*
X002966Y017919D02*
X002730Y017919D01*
X002730Y018077D02*
X002844Y018077D01*
X002800Y018236D02*
X002730Y018236D01*
X002730Y018394D02*
X002811Y018394D01*
X002744Y018553D02*
X002887Y018553D01*
X002903Y018711D02*
X003111Y018711D01*
X003061Y018870D02*
X011169Y018870D01*
X011199Y018840D02*
X011601Y018840D01*
X011885Y019124D01*
X011885Y019526D01*
X011601Y019810D01*
X011199Y019810D01*
X010915Y019526D01*
X010915Y019124D01*
X011199Y018840D01*
X011199Y018810D02*
X010915Y018526D01*
X010915Y018124D01*
X011199Y017840D01*
X011601Y017840D01*
X011885Y018124D01*
X011885Y018526D01*
X011601Y018810D01*
X011199Y018810D01*
X011100Y018711D02*
X003689Y018711D01*
X003913Y018553D02*
X010941Y018553D01*
X010915Y018394D02*
X003989Y018394D01*
X004000Y018236D02*
X010915Y018236D01*
X010962Y018077D02*
X003956Y018077D01*
X003834Y017919D02*
X011120Y017919D01*
X011680Y017919D02*
X012120Y017919D01*
X012199Y017840D02*
X011915Y018124D01*
X011915Y018526D01*
X012199Y018810D01*
X012601Y018810D01*
X012885Y018526D01*
X012885Y018124D01*
X012601Y017840D01*
X012199Y017840D01*
X011962Y018077D02*
X011838Y018077D01*
X011885Y018236D02*
X011915Y018236D01*
X011915Y018394D02*
X011885Y018394D01*
X011859Y018553D02*
X011941Y018553D01*
X012100Y018711D02*
X011700Y018711D01*
X011631Y018870D02*
X012169Y018870D01*
X012199Y018840D02*
X011915Y019124D01*
X011915Y019526D01*
X012199Y019810D01*
X012601Y019810D01*
X012885Y019526D01*
X012885Y019124D01*
X012601Y018840D01*
X012199Y018840D01*
X012011Y019028D02*
X011789Y019028D01*
X011885Y019187D02*
X011915Y019187D01*
X011915Y019345D02*
X011885Y019345D01*
X011885Y019504D02*
X011915Y019504D01*
X012051Y019662D02*
X011749Y019662D01*
X011051Y019662D02*
X003854Y019662D01*
X004012Y019821D02*
X021388Y019821D01*
X021546Y019662D02*
X013749Y019662D01*
X013885Y019526D02*
X013601Y019810D01*
X013414Y019810D01*
X013414Y019339D01*
X013885Y019339D01*
X013885Y019526D01*
X013885Y019504D02*
X021705Y019504D01*
X021863Y019345D02*
X013885Y019345D01*
X013885Y019311D02*
X013414Y019311D01*
X013414Y019339D01*
X013386Y019339D01*
X013386Y019810D01*
X013199Y019810D01*
X012915Y019526D01*
X012915Y019339D01*
X013386Y019339D01*
X013386Y019311D01*
X013414Y019311D01*
X013414Y018840D01*
X013601Y018840D01*
X013885Y019124D01*
X013885Y019311D01*
X013885Y019187D02*
X022022Y019187D01*
X022120Y019088D02*
X022120Y019088D01*
X022180Y019028D02*
X013789Y019028D01*
X013631Y018870D02*
X023070Y018870D01*
X023070Y018711D02*
X022689Y018711D01*
X022631Y018735D02*
X022168Y018735D01*
X021999Y018665D01*
X021870Y018536D01*
X021800Y018366D01*
X021800Y018183D01*
X021870Y018014D01*
X021999Y017885D01*
X022168Y017815D01*
X022631Y017815D01*
X022801Y017885D01*
X022930Y018014D01*
X023000Y018183D01*
X023000Y018366D01*
X022930Y018536D01*
X022801Y018665D01*
X022631Y018735D01*
X022913Y018553D02*
X023070Y018553D01*
X023070Y018394D02*
X022989Y018394D01*
X023000Y018236D02*
X023070Y018236D01*
X023070Y018077D02*
X022956Y018077D01*
X023070Y017919D02*
X022834Y017919D01*
X021966Y017919D02*
X013680Y017919D01*
X013601Y017840D02*
X013885Y018124D01*
X013885Y018526D01*
X013601Y018810D01*
X013199Y018810D01*
X012915Y018526D01*
X012915Y018124D01*
X013199Y017840D01*
X013601Y017840D01*
X013838Y018077D02*
X021844Y018077D01*
X021800Y018236D02*
X013885Y018236D01*
X013885Y018394D02*
X021811Y018394D01*
X021887Y018553D02*
X013859Y018553D01*
X013700Y018711D02*
X022111Y018711D01*
X021936Y017602D02*
X003864Y017602D01*
X003968Y017443D02*
X009456Y017443D01*
X009468Y017455D02*
X009340Y017327D01*
X009340Y017153D01*
X009270Y017222D01*
X009270Y017222D01*
X009197Y017295D01*
X009102Y017335D01*
X007848Y017335D01*
X007753Y017295D01*
X007680Y017222D01*
X006980Y016522D01*
X006940Y016427D01*
X006940Y013933D01*
X006930Y013923D01*
X006707Y013923D01*
X006602Y013818D01*
X006602Y013232D01*
X006707Y013127D01*
X007084Y013127D01*
X006780Y012823D01*
X006457Y012823D01*
X006352Y012718D01*
X006352Y012132D01*
X006457Y012027D01*
X007043Y012027D01*
X007148Y012132D01*
X007148Y012455D01*
X007408Y012715D01*
X007552Y012715D01*
X007647Y012755D01*
X007720Y012828D01*
X007760Y012923D01*
X007760Y016077D01*
X008343Y016077D01*
X008448Y016182D01*
X008448Y016768D01*
X008401Y016815D01*
X008942Y016815D01*
X009340Y016417D01*
X009340Y015123D01*
X009468Y014995D01*
X010332Y014995D01*
X010460Y015123D01*
X010460Y015965D01*
X011117Y015965D01*
X011213Y016005D01*
X011256Y016048D01*
X011545Y016048D01*
X011600Y016103D01*
X011615Y016088D01*
X011661Y016062D01*
X011712Y016048D01*
X011916Y016048D01*
X011916Y016407D01*
X011953Y016407D01*
X011953Y016443D01*
X012331Y016443D01*
X012331Y016628D01*
X012318Y016679D01*
X012291Y016725D01*
X012254Y016762D01*
X012209Y016788D01*
X012158Y016802D01*
X011953Y016802D01*
X011953Y016443D01*
X011916Y016443D01*
X011916Y016802D01*
X011712Y016802D01*
X011661Y016788D01*
X011615Y016762D01*
X011600Y016747D01*
X011545Y016802D01*
X010986Y016802D01*
X010869Y016685D01*
X010869Y016485D01*
X010460Y016485D01*
X010460Y017327D01*
X010332Y017455D01*
X009468Y017455D01*
X009340Y017285D02*
X009208Y017285D01*
X009050Y017075D02*
X007900Y017075D01*
X007200Y016375D01*
X007200Y013825D01*
X007000Y013625D01*
X007000Y013525D01*
X006602Y013481D02*
X003953Y013481D01*
X003930Y013536D02*
X004000Y013366D01*
X004000Y013183D01*
X003930Y013014D01*
X003801Y012885D01*
X003631Y012815D01*
X003168Y012815D01*
X002999Y012885D01*
X002870Y013014D01*
X002800Y013183D01*
X002800Y013366D01*
X002870Y013536D01*
X002999Y013665D01*
X003168Y013735D01*
X003631Y013735D01*
X003801Y013665D01*
X003930Y013536D01*
X003827Y013639D02*
X006602Y013639D01*
X006602Y013798D02*
X002730Y013798D01*
X002730Y013956D02*
X002928Y013956D01*
X002870Y014014D02*
X002999Y013885D01*
X003168Y013815D01*
X003631Y013815D01*
X003801Y013885D01*
X003930Y014014D01*
X004000Y014183D01*
X004000Y014366D01*
X003930Y014536D01*
X003801Y014665D01*
X003631Y014735D01*
X003168Y014735D01*
X002999Y014665D01*
X002870Y014536D01*
X002800Y014366D01*
X002800Y014183D01*
X002870Y014014D01*
X002829Y014115D02*
X002730Y014115D01*
X002730Y014273D02*
X002800Y014273D01*
X002827Y014432D02*
X002730Y014432D01*
X002730Y014590D02*
X002924Y014590D01*
X002730Y014749D02*
X006940Y014749D01*
X006940Y014907D02*
X003823Y014907D01*
X003801Y014885D02*
X003930Y015014D01*
X004000Y015183D01*
X004000Y015366D01*
X003930Y015536D01*
X003801Y015665D01*
X003631Y015735D01*
X003168Y015735D01*
X002999Y015665D01*
X002870Y015536D01*
X002800Y015366D01*
X002800Y015183D01*
X002870Y015014D01*
X002999Y014885D01*
X003168Y014815D01*
X003631Y014815D01*
X003801Y014885D01*
X003951Y015066D02*
X006940Y015066D01*
X006940Y015224D02*
X004000Y015224D01*
X003993Y015383D02*
X006940Y015383D01*
X006940Y015541D02*
X003925Y015541D01*
X003717Y015700D02*
X006940Y015700D01*
X006940Y015858D02*
X003735Y015858D01*
X003801Y015885D02*
X003930Y016014D01*
X004000Y016183D01*
X004000Y016366D01*
X003930Y016536D01*
X003801Y016665D01*
X003631Y016735D01*
X003168Y016735D01*
X002999Y016665D01*
X002870Y016536D01*
X002800Y016366D01*
X002800Y016183D01*
X002870Y016014D01*
X002999Y015885D01*
X003168Y015815D01*
X003631Y015815D01*
X003801Y015885D01*
X003931Y016017D02*
X006940Y016017D01*
X006940Y016175D02*
X003996Y016175D01*
X004000Y016334D02*
X006940Y016334D01*
X006967Y016492D02*
X003948Y016492D01*
X003815Y016651D02*
X007108Y016651D01*
X007266Y016809D02*
X002730Y016809D01*
X002730Y016651D02*
X002985Y016651D01*
X002852Y016492D02*
X002730Y016492D01*
X002730Y016334D02*
X002800Y016334D01*
X002804Y016175D02*
X002730Y016175D01*
X002730Y016017D02*
X002869Y016017D01*
X002730Y015858D02*
X003065Y015858D01*
X003083Y015700D02*
X002730Y015700D01*
X002730Y015541D02*
X002875Y015541D01*
X002807Y015383D02*
X002730Y015383D01*
X002730Y015224D02*
X002800Y015224D01*
X002849Y015066D02*
X002730Y015066D01*
X002730Y014907D02*
X002977Y014907D01*
X003876Y014590D02*
X006940Y014590D01*
X006940Y014432D02*
X003973Y014432D01*
X004000Y014273D02*
X006940Y014273D01*
X006940Y014115D02*
X003971Y014115D01*
X003872Y013956D02*
X006940Y013956D01*
X006602Y013322D02*
X004000Y013322D01*
X003992Y013164D02*
X006671Y013164D01*
X006962Y013005D02*
X003921Y013005D01*
X003708Y012847D02*
X006804Y012847D01*
X007222Y012530D02*
X008928Y012530D01*
X008840Y012688D02*
X007381Y012688D01*
X007300Y012975D02*
X006750Y012425D01*
X007148Y012371D02*
X009086Y012371D01*
X009245Y012213D02*
X007148Y012213D01*
X007070Y012054D02*
X009340Y012054D01*
X009340Y011896D02*
X003811Y011896D01*
X003801Y011885D02*
X003930Y012014D01*
X004000Y012183D01*
X004000Y012366D01*
X003930Y012536D01*
X003801Y012665D01*
X003631Y012735D01*
X003168Y012735D01*
X002999Y012665D01*
X002870Y012536D01*
X002800Y012366D01*
X002800Y012183D01*
X002870Y012014D01*
X002999Y011885D01*
X003168Y011815D01*
X003631Y011815D01*
X003801Y011885D01*
X003946Y012054D02*
X006430Y012054D01*
X006352Y012213D02*
X004000Y012213D01*
X003998Y012371D02*
X006352Y012371D01*
X006352Y012530D02*
X003932Y012530D01*
X003745Y012688D02*
X006352Y012688D01*
X007300Y012975D02*
X007500Y012975D01*
X007500Y016225D01*
X007750Y016475D01*
X008050Y016475D01*
X008448Y016492D02*
X009265Y016492D01*
X009340Y016334D02*
X008448Y016334D01*
X008441Y016175D02*
X009340Y016175D01*
X009340Y016017D02*
X007760Y016017D01*
X007760Y015858D02*
X009340Y015858D01*
X009340Y015700D02*
X007760Y015700D01*
X007760Y015541D02*
X009340Y015541D01*
X009340Y015383D02*
X007760Y015383D01*
X007760Y015224D02*
X009340Y015224D01*
X009397Y015066D02*
X007760Y015066D01*
X007760Y014273D02*
X008702Y014273D01*
X008702Y014115D02*
X007760Y014115D01*
X007760Y013956D02*
X008702Y013956D01*
X008702Y013798D02*
X007760Y013798D01*
X007760Y013639D02*
X008795Y013639D01*
X008840Y013481D02*
X007760Y013481D01*
X007760Y013322D02*
X008840Y013322D01*
X008840Y013164D02*
X007760Y013164D01*
X007760Y013005D02*
X008840Y013005D01*
X008840Y012847D02*
X007728Y012847D01*
X006657Y011596D02*
X006496Y011662D01*
X006322Y011662D01*
X006162Y011596D01*
X006039Y011473D01*
X005972Y011312D01*
X005972Y011138D01*
X006039Y010977D01*
X006162Y010854D01*
X006322Y010788D01*
X006496Y010788D01*
X006657Y010854D01*
X006780Y010977D01*
X006847Y011138D01*
X006847Y011312D01*
X006780Y011473D01*
X006657Y011596D01*
X006675Y011579D02*
X007325Y011579D01*
X007198Y011420D02*
X006802Y011420D01*
X006847Y011262D02*
X007153Y011262D01*
X007168Y011103D02*
X006832Y011103D01*
X006748Y010945D02*
X007252Y010945D01*
X007929Y010945D02*
X010253Y010945D01*
X009900Y012760D02*
X011265Y014125D01*
X010570Y013798D02*
X009498Y013798D01*
X009452Y013639D02*
X009405Y013639D01*
X010348Y013639D02*
X010412Y013639D01*
X010403Y015066D02*
X021849Y015066D01*
X021800Y015224D02*
X010460Y015224D01*
X010460Y015383D02*
X021807Y015383D01*
X021875Y015541D02*
X010460Y015541D01*
X010460Y015700D02*
X022083Y015700D01*
X022065Y015858D02*
X010460Y015858D01*
X009900Y016225D02*
X009050Y017075D01*
X008948Y016809D02*
X008407Y016809D01*
X008448Y016651D02*
X009107Y016651D01*
X009900Y016225D02*
X011065Y016225D01*
X011265Y016425D01*
X010869Y016492D02*
X010460Y016492D01*
X010460Y016651D02*
X010869Y016651D01*
X010460Y016809D02*
X023070Y016809D01*
X021985Y016651D02*
X012325Y016651D01*
X012331Y016492D02*
X021852Y016492D01*
X021800Y016334D02*
X012331Y016334D01*
X012331Y016407D02*
X012331Y016222D01*
X012318Y016171D01*
X012291Y016125D01*
X012254Y016088D01*
X012209Y016062D01*
X012158Y016048D01*
X011953Y016048D01*
X011953Y016407D01*
X012331Y016407D01*
X012319Y016175D02*
X021804Y016175D01*
X021869Y016017D02*
X011225Y016017D01*
X011916Y016175D02*
X011953Y016175D01*
X011953Y016334D02*
X011916Y016334D01*
X011916Y016492D02*
X011953Y016492D01*
X011953Y016651D02*
X011916Y016651D01*
X012680Y017919D02*
X013120Y017919D01*
X012962Y018077D02*
X012838Y018077D01*
X012885Y018236D02*
X012915Y018236D01*
X012915Y018394D02*
X012885Y018394D01*
X012859Y018553D02*
X012941Y018553D01*
X013100Y018711D02*
X012700Y018711D01*
X012631Y018870D02*
X013169Y018870D01*
X013199Y018840D02*
X013386Y018840D01*
X013386Y019311D01*
X012915Y019311D01*
X012915Y019124D01*
X013199Y018840D01*
X013386Y018870D02*
X013414Y018870D01*
X013414Y019028D02*
X013386Y019028D01*
X013386Y019187D02*
X013414Y019187D01*
X013414Y019345D02*
X013386Y019345D01*
X013386Y019504D02*
X013414Y019504D01*
X013414Y019662D02*
X013386Y019662D01*
X013051Y019662D02*
X012749Y019662D01*
X012885Y019504D02*
X012915Y019504D01*
X012915Y019345D02*
X012885Y019345D01*
X012885Y019187D02*
X012915Y019187D01*
X013011Y019028D02*
X012789Y019028D01*
X011011Y019028D02*
X003220Y019028D01*
X003378Y019187D02*
X010915Y019187D01*
X010915Y019345D02*
X003537Y019345D01*
X003695Y019504D02*
X010915Y019504D01*
X010344Y017443D02*
X021832Y017443D01*
X021800Y017285D02*
X010460Y017285D01*
X010460Y017126D02*
X021824Y017126D01*
X021917Y016968D02*
X010460Y016968D01*
X007742Y017285D02*
X004000Y017285D01*
X003976Y017126D02*
X007583Y017126D01*
X007425Y016968D02*
X003883Y016968D01*
X002917Y016968D02*
X002730Y016968D01*
X002730Y017126D02*
X002824Y017126D01*
X002800Y017285D02*
X002730Y017285D01*
X002730Y017443D02*
X002832Y017443D01*
X002730Y013639D02*
X002973Y013639D01*
X002847Y013481D02*
X002730Y013481D01*
X002730Y013322D02*
X002800Y013322D01*
X002808Y013164D02*
X002730Y013164D01*
X002730Y013005D02*
X002879Y013005D01*
X002730Y012847D02*
X003092Y012847D01*
X003055Y012688D02*
X002730Y012688D01*
X002730Y012530D02*
X002868Y012530D01*
X002802Y012371D02*
X002730Y012371D01*
X002730Y012213D02*
X002800Y012213D01*
X002854Y012054D02*
X002730Y012054D01*
X002730Y011896D02*
X002989Y011896D01*
X003887Y011579D02*
X006144Y011579D01*
X006017Y011420D02*
X003978Y011420D01*
X004000Y011262D02*
X005972Y011262D01*
X005986Y011103D02*
X003967Y011103D01*
X003860Y010945D02*
X006071Y010945D01*
X022971Y014115D02*
X023070Y014115D01*
X023070Y014273D02*
X023000Y014273D01*
X022973Y014432D02*
X023070Y014432D01*
X023070Y014590D02*
X022876Y014590D01*
D15*
X009100Y014025D03*
X007000Y013525D03*
X006750Y012425D03*
X008050Y016475D03*
M02*
